<?xml version="1.0" encoding="UTF-8" standalone="no"?>
<!DOCTYPE svg PUBLIC "-//W3C//DTD SVG 1.1//EN"
 "http://www.w3.org/Graphics/SVG/1.1/DTD/svg11.dtd">
<!-- Generated by graphviz version 2.38.0 (20140413.2041)
 -->
<!-- Title: ITree Pages: 1 -->
<svg width="2084pt" height="794pt"
 viewBox="0.00 0.00 2083.93 794.10" xmlns="http://www.w3.org/2000/svg" xmlns:xlink="http://www.w3.org/1999/xlink">
<g id="graph0" class="graph" transform="scale(1 1) rotate(0) translate(944.048 790.05)">
<title>ITree</title>
<polygon fill="white" stroke="none" points="-944.048,4.053 -944.048,-790.05 1139.89,-790.05 1139.89,4.053 -944.048,4.053"/>
<!-- x012E3050 -->
<g id="node1" class="node"><title>x012E3050</title>
<ellipse fill="BLACK" stroke="BLACK" cx="0" cy="-732.55" rx="53.5" ry="53.5"/>
<text text-anchor="middle" x="0" y="-736.35" font-family="Times New Roman,serif" font-size="14.00" fill="white">[96, 404]</text>
<text text-anchor="middle" x="0" y="-721.35" font-family="Times New Roman,serif" font-size="14.00" fill="white">max = 494</text>
</g>
<!-- x012E30A0 -->
<g id="node2" class="node"><title>x012E30A0</title>
<ellipse fill="BLACK" stroke="BLACK" cx="-574.767" cy="-589.07" rx="53.5" ry="53.5"/>
<text text-anchor="middle" x="-574.767" y="-592.87" font-family="Times New Roman,serif" font-size="14.00" fill="white">[7, 151]</text>
<text text-anchor="middle" x="-574.767" y="-577.87" font-family="Times New Roman,serif" font-size="14.00" fill="white">max = 429</text>
</g>
<!-- x012E3050&#45;&gt;x012E30A0 -->
<g id="edge1" class="edge"><title>x012E3050&#45;&gt;x012E30A0</title>
<path fill="none" stroke="black" d="M-52.0205,-719.564C-157.976,-693.114 -398.404,-633.096 -512.474,-604.62"/>
<polygon fill="black" stroke="black" points="-511.9,-601.156 -522.45,-602.13 -513.596,-607.948 -511.9,-601.156"/>
</g>
<!-- x012E3410 -->
<g id="node3" class="node"><title>x012E3410</title>
<ellipse fill="BLACK" stroke="BLACK" cx="524.47" cy="-589.07" rx="53.5" ry="53.5"/>
<text text-anchor="middle" x="524.47" y="-592.87" font-family="Times New Roman,serif" font-size="14.00" fill="white">[239, 292]</text>
<text text-anchor="middle" x="524.47" y="-577.87" font-family="Times New Roman,serif" font-size="14.00" fill="white">max = 494</text>
</g>
<!-- x012E3050&#45;&gt;x012E3410 -->
<g id="edge2" class="edge"><title>x012E3050&#45;&gt;x012E3410</title>
<path fill="none" stroke="black" d="M51.7235,-718.4C148.986,-691.792 358.7,-634.42 462.99,-605.889"/>
<polygon fill="black" stroke="black" points="464.025,-609.235 472.747,-603.22 462.177,-602.483 464.025,-609.235"/>
</g>
<!-- x012E2E70 -->
<g id="node4" class="node"><title>x012E2E70</title>
<ellipse fill="BLACK" stroke="BLACK" cx="-766.356" cy="-445.59" rx="53.5" ry="53.5"/>
<text text-anchor="middle" x="-766.356" y="-449.39" font-family="Times New Roman,serif" font-size="14.00" fill="white">[2, 59]</text>
<text text-anchor="middle" x="-766.356" y="-434.39" font-family="Times New Roman,serif" font-size="14.00" fill="white">max = 281</text>
</g>
<!-- x012E30A0&#45;&gt;x012E2E70 -->
<g id="edge3" class="edge"><title>x012E30A0&#45;&gt;x012E2E70</title>
<path fill="none" stroke="black" d="M-617.764,-556.87C-646.605,-535.271 -684.733,-506.717 -715.145,-483.942"/>
<polygon fill="black" stroke="black" points="-713.401,-480.875 -723.504,-477.682 -717.597,-486.478 -713.401,-480.875"/>
</g>
<!-- x012E2FB0 -->
<g id="node5" class="node"><title>x012E2FB0</title>
<ellipse fill="RED" stroke="RED" cx="-287.384" cy="-445.59" rx="53.5" ry="53.5"/>
<text text-anchor="middle" x="-287.384" y="-449.39" font-family="Times New Roman,serif" font-size="14.00" fill="white">[73, 82]</text>
<text text-anchor="middle" x="-287.384" y="-434.39" font-family="Times New Roman,serif" font-size="14.00" fill="white">max = 429</text>
</g>
<!-- x012E30A0&#45;&gt;x012E2FB0 -->
<g id="edge4" class="edge"><title>x012E30A0&#45;&gt;x012E2FB0</title>
<path fill="none" stroke="black" d="M-526.666,-565.055C-476.518,-540.018 -397.941,-500.787 -344.63,-474.171"/>
<polygon fill="black" stroke="black" points="-343.026,-477.282 -335.642,-469.684 -346.153,-471.019 -343.026,-477.282"/>
</g>
<!-- x012E33C0 -->
<g id="node6" class="node"><title>x012E33C0</title>
<ellipse fill="RED" stroke="RED" cx="314.682" cy="-445.59" rx="53.5" ry="53.5"/>
<text text-anchor="middle" x="314.682" y="-449.39" font-family="Times New Roman,serif" font-size="14.00" fill="white">[176, 225]</text>
<text text-anchor="middle" x="314.682" y="-434.39" font-family="Times New Roman,serif" font-size="14.00" fill="white">max = 494</text>
</g>
<!-- x012E3410&#45;&gt;x012E33C0 -->
<g id="edge5" class="edge"><title>x012E3410&#45;&gt;x012E33C0</title>
<path fill="none" stroke="black" d="M480.235,-558.817C447.321,-536.306 402.266,-505.492 367.468,-481.692"/>
<polygon fill="black" stroke="black" points="369.086,-478.558 358.856,-475.802 365.134,-484.336 369.086,-478.558"/>
</g>
<!-- x012E3320 -->
<g id="node7" class="node"><title>x012E3320</title>
<ellipse fill="RED" stroke="RED" cx="734.257" cy="-445.59" rx="53.5" ry="53.5"/>
<text text-anchor="middle" x="734.257" y="-449.39" font-family="Times New Roman,serif" font-size="14.00" fill="white">[265, 285]</text>
<text text-anchor="middle" x="734.257" y="-434.39" font-family="Times New Roman,serif" font-size="14.00" fill="white">max = 411</text>
</g>
<!-- x012E3410&#45;&gt;x012E3320 -->
<g id="edge6" class="edge"><title>x012E3410&#45;&gt;x012E3320</title>
<path fill="none" stroke="black" d="M568.704,-558.817C601.618,-536.306 646.673,-505.492 681.471,-481.692"/>
<polygon fill="black" stroke="black" points="683.805,-484.336 690.084,-475.802 679.854,-478.558 683.805,-484.336"/>
</g>
<!-- x012E2D30 -->
<g id="node8" class="node"><title>x012E2D30</title>
<ellipse fill="RED" stroke="RED" cx="-862.151" cy="-302.11" rx="53.5" ry="53.5"/>
<text text-anchor="middle" x="-862.151" y="-305.91" font-family="Times New Roman,serif" font-size="14.00" fill="white">[0, 281]</text>
<text text-anchor="middle" x="-862.151" y="-290.91" font-family="Times New Roman,serif" font-size="14.00" fill="white">max = 281</text>
</g>
<!-- x012E2E70&#45;&gt;x012E2D30 -->
<g id="edge7" class="edge"><title>x012E2E70&#45;&gt;x012E2D30</title>
<path fill="none" stroke="black" d="M-796.141,-400.979C-805.783,-386.537 -816.573,-370.376 -826.59,-355.372"/>
<polygon fill="black" stroke="black" points="-823.921,-353.067 -832.385,-346.694 -829.743,-356.954 -823.921,-353.067"/>
</g>
<!-- x012E3370 -->
<g id="node9" class="node"><title>x012E3370</title>
<ellipse fill="RED" stroke="RED" cx="-670.562" cy="-302.11" rx="53.5" ry="53.5"/>
<text text-anchor="middle" x="-670.562" y="-305.91" font-family="Times New Roman,serif" font-size="14.00" fill="white">[4, 188]</text>
<text text-anchor="middle" x="-670.562" y="-290.91" font-family="Times New Roman,serif" font-size="14.00" fill="white">max = 188</text>
</g>
<!-- x012E2E70&#45;&gt;x012E3370 -->
<g id="edge8" class="edge"><title>x012E2E70&#45;&gt;x012E3370</title>
<path fill="none" stroke="black" d="M-736.572,-400.979C-726.93,-386.537 -716.14,-370.376 -706.123,-355.372"/>
<polygon fill="black" stroke="black" points="-702.97,-356.954 -700.328,-346.694 -708.792,-353.067 -702.97,-356.954"/>
</g>
<!-- x012E30F0 -->
<g id="node10" class="node"><title>x012E30F0</title>
<ellipse fill="BLACK" stroke="BLACK" cx="-383.178" cy="-302.11" rx="53.5" ry="53.5"/>
<text text-anchor="middle" x="-383.178" y="-305.91" font-family="Times New Roman,serif" font-size="14.00" fill="white">[45, 182]</text>
<text text-anchor="middle" x="-383.178" y="-290.91" font-family="Times New Roman,serif" font-size="14.00" fill="white">max = 303</text>
</g>
<!-- x012E2FB0&#45;&gt;x012E30F0 -->
<g id="edge9" class="edge"><title>x012E2FB0&#45;&gt;x012E30F0</title>
<path fill="none" stroke="black" d="M-317.169,-400.979C-326.81,-386.537 -337.6,-370.376 -347.617,-355.372"/>
<polygon fill="black" stroke="black" points="-344.948,-353.067 -353.412,-346.694 -350.77,-356.954 -344.948,-353.067"/>
</g>
<!-- x012E3000 -->
<g id="node11" class="node"><title>x012E3000</title>
<ellipse fill="BLACK" stroke="BLACK" cx="-95.7946" cy="-302.11" rx="53.5" ry="53.5"/>
<text text-anchor="middle" x="-95.7946" y="-305.91" font-family="Times New Roman,serif" font-size="14.00" fill="white">[87, 429]</text>
<text text-anchor="middle" x="-95.7946" y="-290.91" font-family="Times New Roman,serif" font-size="14.00" fill="white">max = 429</text>
</g>
<!-- x012E2FB0&#45;&gt;x012E3000 -->
<g id="edge10" class="edge"><title>x012E2FB0&#45;&gt;x012E3000</title>
<path fill="none" stroke="black" d="M-244.387,-413.39C-215.546,-391.791 -177.418,-363.237 -147.006,-340.462"/>
<polygon fill="black" stroke="black" points="-144.554,-342.998 -138.647,-334.202 -148.75,-337.395 -144.554,-342.998"/>
</g>
<!-- x012E2D80 -->
<g id="node24" class="node"><title>x012E2D80</title>
<ellipse fill="BLACK" stroke="BLACK" cx="209.788" cy="-302.11" rx="53.5" ry="53.5"/>
<text text-anchor="middle" x="209.788" y="-305.91" font-family="Times New Roman,serif" font-size="14.00" fill="white">[175, 447]</text>
<text text-anchor="middle" x="209.788" y="-290.91" font-family="Times New Roman,serif" font-size="14.00" fill="white">max = 447</text>
</g>
<!-- x012E33C0&#45;&gt;x012E2D80 -->
<g id="edge23" class="edge"><title>x012E33C0&#45;&gt;x012E2D80</title>
<path fill="none" stroke="black" d="M282.925,-402.152C271.732,-386.84 259.04,-369.48 247.409,-353.57"/>
<polygon fill="black" stroke="black" points="250.163,-351.408 241.436,-345.4 244.513,-355.539 250.163,-351.408"/>
</g>
<!-- x012E2E20 -->
<g id="node25" class="node"><title>x012E2E20</title>
<ellipse fill="BLACK" stroke="BLACK" cx="419.576" cy="-302.11" rx="53.5" ry="53.5"/>
<text text-anchor="middle" x="419.576" y="-305.91" font-family="Times New Roman,serif" font-size="14.00" fill="white">[222, 494]</text>
<text text-anchor="middle" x="419.576" y="-290.91" font-family="Times New Roman,serif" font-size="14.00" fill="white">max = 494</text>
</g>
<!-- x012E33C0&#45;&gt;x012E2E20 -->
<g id="edge24" class="edge"><title>x012E33C0&#45;&gt;x012E2E20</title>
<path fill="none" stroke="black" d="M346.438,-402.152C357.632,-386.84 370.323,-369.48 381.955,-353.57"/>
<polygon fill="black" stroke="black" points="384.851,-355.539 387.927,-345.4 379.2,-351.408 384.851,-355.539"/>
</g>
<!-- x012E3280 -->
<g id="node26" class="node"><title>x012E3280</title>
<ellipse fill="BLACK" stroke="BLACK" cx="629.364" cy="-302.11" rx="53.5" ry="53.5"/>
<text text-anchor="middle" x="629.364" y="-305.91" font-family="Times New Roman,serif" font-size="14.00" fill="white">[256, 355]</text>
<text text-anchor="middle" x="629.364" y="-290.91" font-family="Times New Roman,serif" font-size="14.00" fill="white">max = 355</text>
</g>
<!-- x012E3320&#45;&gt;x012E3280 -->
<g id="edge25" class="edge"><title>x012E3320&#45;&gt;x012E3280</title>
<path fill="none" stroke="black" d="M702.501,-402.152C691.307,-386.84 678.616,-369.48 666.984,-353.57"/>
<polygon fill="black" stroke="black" points="669.739,-351.408 661.012,-345.4 664.088,-355.539 669.739,-351.408"/>
</g>
<!-- x012E3230 -->
<g id="node27" class="node"><title>x012E3230</title>
<ellipse fill="BLACK" stroke="BLACK" cx="944.045" cy="-302.11" rx="53.5" ry="53.5"/>
<text text-anchor="middle" x="944.045" y="-305.91" font-family="Times New Roman,serif" font-size="14.00" fill="white">[373, 411]</text>
<text text-anchor="middle" x="944.045" y="-290.91" font-family="Times New Roman,serif" font-size="14.00" fill="white">max = 411</text>
</g>
<!-- x012E3320&#45;&gt;x012E3230 -->
<g id="edge26" class="edge"><title>x012E3320&#45;&gt;x012E3230</title>
<path fill="none" stroke="black" d="M778.492,-415.337C811.406,-392.826 856.461,-362.012 891.259,-338.212"/>
<polygon fill="black" stroke="black" points="893.593,-340.856 899.872,-332.322 889.642,-335.078 893.593,-340.856"/>
</g>
<!-- NIL0 -->
<g id="node12" class="node"><title>NIL0</title>
<ellipse fill="BLACK" stroke="BLACK" cx="-910.048" cy="-158.63" rx="30" ry="30"/>
<text text-anchor="middle" x="-910.048" y="-154.93" font-family="Times New Roman,serif" font-size="14.00" fill="white">NIL0</text>
</g>
<!-- x012E2D30&#45;&gt;NIL0 -->
<g id="edge11" class="edge"><title>x012E2D30&#45;&gt;NIL0</title>
<path fill="none" stroke="black" d="M-879.173,-251.12C-885.096,-233.377 -891.637,-213.781 -897.169,-197.211"/>
<polygon fill="black" stroke="black" points="-893.982,-195.706 -900.468,-187.329 -900.621,-197.922 -893.982,-195.706"/>
</g>
<!-- NIL1 -->
<g id="node13" class="node"><title>NIL1</title>
<ellipse fill="BLACK" stroke="BLACK" cx="-814.254" cy="-158.63" rx="30" ry="30"/>
<text text-anchor="middle" x="-814.254" y="-154.93" font-family="Times New Roman,serif" font-size="14.00" fill="white">NIL1</text>
</g>
<!-- x012E2D30&#45;&gt;NIL1 -->
<g id="edge12" class="edge"><title>x012E2D30&#45;&gt;NIL1</title>
<path fill="none" stroke="black" d="M-845.129,-251.12C-839.206,-233.377 -832.665,-213.781 -827.133,-197.211"/>
<polygon fill="black" stroke="black" points="-823.681,-197.922 -823.834,-187.329 -830.321,-195.706 -823.681,-197.922"/>
</g>
<!-- NIL2 -->
<g id="node14" class="node"><title>NIL2</title>
<ellipse fill="BLACK" stroke="BLACK" cx="-718.459" cy="-158.63" rx="30" ry="30"/>
<text text-anchor="middle" x="-718.459" y="-154.93" font-family="Times New Roman,serif" font-size="14.00" fill="white">NIL2</text>
</g>
<!-- x012E3370&#45;&gt;NIL2 -->
<g id="edge13" class="edge"><title>x012E3370&#45;&gt;NIL2</title>
<path fill="none" stroke="black" d="M-687.584,-251.12C-693.507,-233.377 -700.048,-213.781 -705.58,-197.211"/>
<polygon fill="black" stroke="black" points="-702.392,-195.706 -708.879,-187.329 -709.032,-197.922 -702.392,-195.706"/>
</g>
<!-- NIL3 -->
<g id="node15" class="node"><title>NIL3</title>
<ellipse fill="BLACK" stroke="BLACK" cx="-622.665" cy="-158.63" rx="30" ry="30"/>
<text text-anchor="middle" x="-622.665" y="-154.93" font-family="Times New Roman,serif" font-size="14.00" fill="white">NIL3</text>
</g>
<!-- x012E3370&#45;&gt;NIL3 -->
<g id="edge14" class="edge"><title>x012E3370&#45;&gt;NIL3</title>
<path fill="none" stroke="black" d="M-653.54,-251.12C-647.617,-233.377 -641.076,-213.781 -635.544,-197.211"/>
<polygon fill="black" stroke="black" points="-632.092,-197.922 -632.245,-187.329 -638.731,-195.706 -632.092,-197.922"/>
</g>
<!-- x012E3140 -->
<g id="node16" class="node"><title>x012E3140</title>
<ellipse fill="RED" stroke="RED" cx="-478.973" cy="-158.63" rx="53.5" ry="53.5"/>
<text text-anchor="middle" x="-478.973" y="-162.43" font-family="Times New Roman,serif" font-size="14.00" fill="white">[28, 303]</text>
<text text-anchor="middle" x="-478.973" y="-147.43" font-family="Times New Roman,serif" font-size="14.00" fill="white">max = 303</text>
</g>
<!-- x012E30F0&#45;&gt;x012E3140 -->
<g id="edge15" class="edge"><title>x012E30F0&#45;&gt;x012E3140</title>
<path fill="none" stroke="black" d="M-412.963,-257.499C-422.605,-243.057 -433.395,-226.896 -443.412,-211.892"/>
<polygon fill="black" stroke="black" points="-440.743,-209.587 -449.206,-203.214 -446.564,-213.474 -440.743,-209.587"/>
</g>
<!-- NIL6 -->
<g id="node17" class="node"><title>NIL6</title>
<ellipse fill="BLACK" stroke="BLACK" cx="-335.281" cy="-158.63" rx="30" ry="30"/>
<text text-anchor="middle" x="-335.281" y="-154.93" font-family="Times New Roman,serif" font-size="14.00" fill="white">NIL6</text>
</g>
<!-- x012E30F0&#45;&gt;NIL6 -->
<g id="edge16" class="edge"><title>x012E30F0&#45;&gt;NIL6</title>
<path fill="none" stroke="black" d="M-366.157,-251.12C-360.233,-233.377 -353.692,-213.781 -348.16,-197.211"/>
<polygon fill="black" stroke="black" points="-344.708,-197.922 -344.861,-187.329 -351.348,-195.706 -344.708,-197.922"/>
</g>
<!-- x012E2F60 -->
<g id="node18" class="node"><title>x012E2F60</title>
<ellipse fill="RED" stroke="RED" cx="-191.589" cy="-158.63" rx="53.5" ry="53.5"/>
<text text-anchor="middle" x="-191.589" y="-162.43" font-family="Times New Roman,serif" font-size="14.00" fill="white">[83, 331]</text>
<text text-anchor="middle" x="-191.589" y="-147.43" font-family="Times New Roman,serif" font-size="14.00" fill="white">max = 331</text>
</g>
<!-- x012E3000&#45;&gt;x012E2F60 -->
<g id="edge17" class="edge"><title>x012E3000&#45;&gt;x012E2F60</title>
<path fill="none" stroke="black" d="M-125.579,-257.499C-135.221,-243.057 -146.011,-226.896 -156.028,-211.892"/>
<polygon fill="black" stroke="black" points="-153.359,-209.587 -161.823,-203.214 -159.181,-213.474 -153.359,-209.587"/>
</g>
<!-- NIL9 -->
<g id="node19" class="node"><title>NIL9</title>
<ellipse fill="BLACK" stroke="BLACK" cx="-47.8973" cy="-158.63" rx="30" ry="30"/>
<text text-anchor="middle" x="-47.8973" y="-154.93" font-family="Times New Roman,serif" font-size="14.00" fill="white">NIL9</text>
</g>
<!-- x012E3000&#45;&gt;NIL9 -->
<g id="edge18" class="edge"><title>x012E3000&#45;&gt;NIL9</title>
<path fill="none" stroke="black" d="M-78.7729,-251.12C-72.8498,-233.377 -66.3082,-213.781 -60.7767,-197.211"/>
<polygon fill="black" stroke="black" points="-57.3242,-197.922 -57.4776,-187.329 -63.964,-195.706 -57.3242,-197.922"/>
</g>
<!-- NIL4 -->
<g id="node20" class="node"><title>NIL4</title>
<ellipse fill="BLACK" stroke="BLACK" cx="-526.87" cy="-34.447" rx="30" ry="30"/>
<text text-anchor="middle" x="-526.87" y="-30.747" font-family="Times New Roman,serif" font-size="14.00" fill="white">NIL4</text>
</g>
<!-- x012E3140&#45;&gt;NIL4 -->
<g id="edge19" class="edge"><title>x012E3140&#45;&gt;NIL4</title>
<path fill="none" stroke="black" d="M-498.316,-108.478C-502.975,-96.3991 -507.876,-83.6938 -512.276,-72.2847"/>
<polygon fill="black" stroke="black" points="-509.132,-70.7111 -515.996,-62.6406 -515.663,-73.2302 -509.132,-70.7111"/>
</g>
<!-- NIL5 -->
<g id="node21" class="node"><title>NIL5</title>
<ellipse fill="BLACK" stroke="BLACK" cx="-431.076" cy="-34.447" rx="30" ry="30"/>
<text text-anchor="middle" x="-431.076" y="-30.747" font-family="Times New Roman,serif" font-size="14.00" fill="white">NIL5</text>
</g>
<!-- x012E3140&#45;&gt;NIL5 -->
<g id="edge20" class="edge"><title>x012E3140&#45;&gt;NIL5</title>
<path fill="none" stroke="black" d="M-459.629,-108.478C-454.97,-96.3991 -450.07,-83.6938 -445.67,-72.2847"/>
<polygon fill="black" stroke="black" points="-442.283,-73.2302 -441.95,-62.6406 -448.814,-70.7111 -442.283,-73.2302"/>
</g>
<!-- NIL7 -->
<g id="node22" class="node"><title>NIL7</title>
<ellipse fill="BLACK" stroke="BLACK" cx="-239.486" cy="-34.447" rx="30" ry="30"/>
<text text-anchor="middle" x="-239.486" y="-30.747" font-family="Times New Roman,serif" font-size="14.00" fill="white">NIL7</text>
</g>
<!-- x012E2F60&#45;&gt;NIL7 -->
<g id="edge21" class="edge"><title>x012E2F60&#45;&gt;NIL7</title>
<path fill="none" stroke="black" d="M-210.933,-108.478C-215.592,-96.3991 -220.492,-83.6938 -224.892,-72.2847"/>
<polygon fill="black" stroke="black" points="-221.748,-70.7111 -228.612,-62.6406 -228.279,-73.2302 -221.748,-70.7111"/>
</g>
<!-- NIL8 -->
<g id="node23" class="node"><title>NIL8</title>
<ellipse fill="BLACK" stroke="BLACK" cx="-143.692" cy="-34.447" rx="30" ry="30"/>
<text text-anchor="middle" x="-143.692" y="-30.747" font-family="Times New Roman,serif" font-size="14.00" fill="white">NIL8</text>
</g>
<!-- x012E2F60&#45;&gt;NIL8 -->
<g id="edge22" class="edge"><title>x012E2F60&#45;&gt;NIL8</title>
<path fill="none" stroke="black" d="M-172.246,-108.478C-167.587,-96.3991 -162.686,-83.6938 -158.286,-72.2847"/>
<polygon fill="black" stroke="black" points="-154.899,-73.2302 -154.566,-62.6406 -161.43,-70.7111 -154.899,-73.2302"/>
</g>
<!-- x012E2EC0 -->
<g id="node28" class="node"><title>x012E2EC0</title>
<ellipse fill="RED" stroke="RED" cx="104.894" cy="-158.63" rx="53.5" ry="53.5"/>
<text text-anchor="middle" x="104.894" y="-162.43" font-family="Times New Roman,serif" font-size="14.00" fill="white">[150, 259]</text>
<text text-anchor="middle" x="104.894" y="-147.43" font-family="Times New Roman,serif" font-size="14.00" fill="white">max = 259</text>
</g>
<!-- x012E2D80&#45;&gt;x012E2EC0 -->
<g id="edge27" class="edge"><title>x012E2D80&#45;&gt;x012E2EC0</title>
<path fill="none" stroke="black" d="M178.032,-258.672C166.838,-243.36 154.146,-226 142.515,-210.09"/>
<polygon fill="black" stroke="black" points="145.27,-207.928 136.542,-201.92 139.619,-212.059 145.27,-207.928"/>
</g>
<!-- NIL12 -->
<g id="node29" class="node"><title>NIL12</title>
<ellipse fill="BLACK" stroke="BLACK" cx="262.235" cy="-158.63" rx="34.5" ry="34.5"/>
<text text-anchor="middle" x="262.235" y="-154.93" font-family="Times New Roman,serif" font-size="14.00" fill="white">NIL12</text>
</g>
<!-- x012E2D80&#45;&gt;NIL12 -->
<g id="edge28" class="edge"><title>x012E2D80&#45;&gt;NIL12</title>
<path fill="none" stroke="black" d="M228.279,-251.524C234.336,-234.954 240.997,-216.731 246.803,-200.847"/>
<polygon fill="black" stroke="black" points="250.149,-201.888 250.295,-191.294 243.574,-199.485 250.149,-201.888"/>
</g>
<!-- NIL13 -->
<g id="node30" class="node"><title>NIL13</title>
<ellipse fill="BLACK" stroke="BLACK" cx="367.129" cy="-158.63" rx="34.5" ry="34.5"/>
<text text-anchor="middle" x="367.129" y="-154.93" font-family="Times New Roman,serif" font-size="14.00" fill="white">NIL13</text>
</g>
<!-- x012E2E20&#45;&gt;NIL13 -->
<g id="edge29" class="edge"><title>x012E2E20&#45;&gt;NIL13</title>
<path fill="none" stroke="black" d="M401.085,-251.524C395.028,-234.954 388.367,-216.731 382.56,-200.847"/>
<polygon fill="black" stroke="black" points="385.789,-199.485 379.069,-191.294 379.215,-201.888 385.789,-199.485"/>
</g>
<!-- NIL14 -->
<g id="node31" class="node"><title>NIL14</title>
<ellipse fill="BLACK" stroke="BLACK" cx="472.023" cy="-158.63" rx="34.5" ry="34.5"/>
<text text-anchor="middle" x="472.023" y="-154.93" font-family="Times New Roman,serif" font-size="14.00" fill="white">NIL14</text>
</g>
<!-- x012E2E20&#45;&gt;NIL14 -->
<g id="edge30" class="edge"><title>x012E2E20&#45;&gt;NIL14</title>
<path fill="none" stroke="black" d="M438.067,-251.524C444.123,-234.954 450.785,-216.731 456.591,-200.847"/>
<polygon fill="black" stroke="black" points="459.937,-201.888 460.083,-191.294 453.362,-199.485 459.937,-201.888"/>
</g>
<!-- NIL15 -->
<g id="node34" class="node"><title>NIL15</title>
<ellipse fill="BLACK" stroke="BLACK" cx="576.917" cy="-158.63" rx="34.5" ry="34.5"/>
<text text-anchor="middle" x="576.917" y="-154.93" font-family="Times New Roman,serif" font-size="14.00" fill="white">NIL15</text>
</g>
<!-- x012E3280&#45;&gt;NIL15 -->
<g id="edge33" class="edge"><title>x012E3280&#45;&gt;NIL15</title>
<path fill="none" stroke="black" d="M610.873,-251.524C604.816,-234.954 598.155,-216.731 592.348,-200.847"/>
<polygon fill="black" stroke="black" points="595.577,-199.485 588.857,-191.294 589.003,-201.888 595.577,-199.485"/>
</g>
<!-- NIL16 -->
<g id="node35" class="node"><title>NIL16</title>
<ellipse fill="BLACK" stroke="BLACK" cx="681.81" cy="-158.63" rx="34.5" ry="34.5"/>
<text text-anchor="middle" x="681.81" y="-154.93" font-family="Times New Roman,serif" font-size="14.00" fill="white">NIL16</text>
</g>
<!-- x012E3280&#45;&gt;NIL16 -->
<g id="edge34" class="edge"><title>x012E3280&#45;&gt;NIL16</title>
<path fill="none" stroke="black" d="M647.854,-251.524C653.911,-234.954 660.573,-216.731 666.379,-200.847"/>
<polygon fill="black" stroke="black" points="669.725,-201.888 669.871,-191.294 663.15,-199.485 669.725,-201.888"/>
</g>
<!-- x012E32D0 -->
<g id="node36" class="node"><title>x012E32D0</title>
<ellipse fill="RED" stroke="RED" cx="839.151" cy="-158.63" rx="53.5" ry="53.5"/>
<text text-anchor="middle" x="839.151" y="-162.43" font-family="Times New Roman,serif" font-size="14.00" fill="white">[300, 303]</text>
<text text-anchor="middle" x="839.151" y="-147.43" font-family="Times New Roman,serif" font-size="14.00" fill="white">max = 303</text>
</g>
<!-- x012E3230&#45;&gt;x012E32D0 -->
<g id="edge35" class="edge"><title>x012E3230&#45;&gt;x012E32D0</title>
<path fill="none" stroke="black" d="M912.289,-258.672C901.095,-243.36 888.404,-226 876.772,-210.09"/>
<polygon fill="black" stroke="black" points="879.527,-207.928 870.8,-201.92 873.876,-212.059 879.527,-207.928"/>
</g>
<!-- x012E3460 -->
<g id="node37" class="node"><title>x012E3460</title>
<ellipse fill="RED" stroke="RED" cx="1048.94" cy="-158.63" rx="53.5" ry="53.5"/>
<text text-anchor="middle" x="1048.94" y="-162.43" font-family="Times New Roman,serif" font-size="14.00" fill="white">[391, 401]</text>
<text text-anchor="middle" x="1048.94" y="-147.43" font-family="Times New Roman,serif" font-size="14.00" fill="white">max = 401</text>
</g>
<!-- x012E3230&#45;&gt;x012E3460 -->
<g id="edge36" class="edge"><title>x012E3230&#45;&gt;x012E3460</title>
<path fill="none" stroke="black" d="M975.802,-258.672C986.995,-243.36 999.687,-226 1011.32,-210.09"/>
<polygon fill="black" stroke="black" points="1014.21,-212.059 1017.29,-201.92 1008.56,-207.928 1014.21,-212.059"/>
</g>
<!-- NIL10 -->
<g id="node32" class="node"><title>NIL10</title>
<ellipse fill="BLACK" stroke="BLACK" cx="52.447" cy="-34.447" rx="34.5" ry="34.5"/>
<text text-anchor="middle" x="52.447" y="-30.747" font-family="Times New Roman,serif" font-size="14.00" fill="white">NIL10</text>
</g>
<!-- x012E2EC0&#45;&gt;NIL10 -->
<g id="edge31" class="edge"><title>x012E2EC0&#45;&gt;NIL10</title>
<path fill="none" stroke="black" d="M84.0148,-109.193C79.3782,-98.2143 74.5088,-86.6846 70.0202,-76.0565"/>
<polygon fill="black" stroke="black" points="73.1375,-74.4416 66.0226,-66.5912 66.6891,-77.1651 73.1375,-74.4416"/>
</g>
<!-- NIL11 -->
<g id="node33" class="node"><title>NIL11</title>
<ellipse fill="BLACK" stroke="BLACK" cx="157.341" cy="-34.447" rx="34.5" ry="34.5"/>
<text text-anchor="middle" x="157.341" y="-30.747" font-family="Times New Roman,serif" font-size="14.00" fill="white">NIL11</text>
</g>
<!-- x012E2EC0&#45;&gt;NIL11 -->
<g id="edge32" class="edge"><title>x012E2EC0&#45;&gt;NIL11</title>
<path fill="none" stroke="black" d="M125.773,-109.193C130.41,-98.2143 135.279,-86.6846 139.768,-76.0565"/>
<polygon fill="black" stroke="black" points="143.099,-77.1651 143.765,-66.5912 136.65,-74.4416 143.099,-77.1651"/>
</g>
<!-- NIL17 -->
<g id="node38" class="node"><title>NIL17</title>
<ellipse fill="BLACK" stroke="BLACK" cx="786.704" cy="-34.447" rx="34.5" ry="34.5"/>
<text text-anchor="middle" x="786.704" y="-30.747" font-family="Times New Roman,serif" font-size="14.00" fill="white">NIL17</text>
</g>
<!-- x012E32D0&#45;&gt;NIL17 -->
<g id="edge37" class="edge"><title>x012E32D0&#45;&gt;NIL17</title>
<path fill="none" stroke="black" d="M818.272,-109.193C813.636,-98.2143 808.766,-86.6846 804.278,-76.0565"/>
<polygon fill="black" stroke="black" points="807.395,-74.4416 800.28,-66.5912 800.946,-77.1651 807.395,-74.4416"/>
</g>
<!-- NIL18 -->
<g id="node39" class="node"><title>NIL18</title>
<ellipse fill="BLACK" stroke="BLACK" cx="891.598" cy="-34.447" rx="34.5" ry="34.5"/>
<text text-anchor="middle" x="891.598" y="-30.747" font-family="Times New Roman,serif" font-size="14.00" fill="white">NIL18</text>
</g>
<!-- x012E32D0&#45;&gt;NIL18 -->
<g id="edge38" class="edge"><title>x012E32D0&#45;&gt;NIL18</title>
<path fill="none" stroke="black" d="M860.03,-109.193C864.667,-98.2143 869.536,-86.6846 874.025,-76.0565"/>
<polygon fill="black" stroke="black" points="877.356,-77.1651 878.023,-66.5912 870.908,-74.4416 877.356,-77.1651"/>
</g>
<!-- NIL19 -->
<g id="node40" class="node"><title>NIL19</title>
<ellipse fill="BLACK" stroke="BLACK" cx="996.492" cy="-34.447" rx="34.5" ry="34.5"/>
<text text-anchor="middle" x="996.492" y="-30.747" font-family="Times New Roman,serif" font-size="14.00" fill="white">NIL19</text>
</g>
<!-- x012E3460&#45;&gt;NIL19 -->
<g id="edge39" class="edge"><title>x012E3460&#45;&gt;NIL19</title>
<path fill="none" stroke="black" d="M1028.06,-109.193C1023.42,-98.2143 1018.55,-86.6846 1014.07,-76.0565"/>
<polygon fill="black" stroke="black" points="1017.18,-74.4416 1010.07,-66.5912 1010.73,-77.1651 1017.18,-74.4416"/>
</g>
<!-- NIL20 -->
<g id="node41" class="node"><title>NIL20</title>
<ellipse fill="BLACK" stroke="BLACK" cx="1101.39" cy="-34.447" rx="34.5" ry="34.5"/>
<text text-anchor="middle" x="1101.39" y="-30.747" font-family="Times New Roman,serif" font-size="14.00" fill="white">NIL20</text>
</g>
<!-- x012E3460&#45;&gt;NIL20 -->
<g id="edge40" class="edge"><title>x012E3460&#45;&gt;NIL20</title>
<path fill="none" stroke="black" d="M1069.82,-109.193C1074.45,-98.2143 1079.32,-86.6846 1083.81,-76.0565"/>
<polygon fill="black" stroke="black" points="1087.14,-77.1651 1087.81,-66.5912 1080.7,-74.4416 1087.14,-77.1651"/>
</g>
</g>
</svg>
