<?xml version="1.0" encoding="UTF-8" standalone="no"?>
<!DOCTYPE svg PUBLIC "-//W3C//DTD SVG 1.1//EN"
 "http://www.w3.org/Graphics/SVG/1.1/DTD/svg11.dtd">
<!-- Generated by graphviz version 2.38.0 (20140413.2041)
 -->
<!-- Title: ITree Pages: 1 -->
<svg width="1874pt" height="794pt"
 viewBox="0.00 0.00 1874.15 794.10" xmlns="http://www.w3.org/2000/svg" xmlns:xlink="http://www.w3.org/1999/xlink">
<g id="graph0" class="graph" transform="scale(1 1) rotate(0) translate(848.254 790.05)">
<title>ITree</title>
<polygon fill="white" stroke="none" points="-848.254,4.053 -848.254,-790.05 1025.89,-790.05 1025.89,4.053 -848.254,4.053"/>
<!-- x012E3050 -->
<g id="node1" class="node"><title>x012E3050</title>
<ellipse fill="BLACK" stroke="BLACK" cx="0" cy="-732.55" rx="53.5" ry="53.5"/>
<text text-anchor="middle" x="0" y="-736.35" font-family="Times New Roman,serif" font-size="14.00" fill="white">[150, 259]</text>
<text text-anchor="middle" x="0" y="-721.35" font-family="Times New Roman,serif" font-size="14.00" fill="white">max = 494</text>
</g>
<!-- x012E30A0 -->
<g id="node2" class="node"><title>x012E30A0</title>
<ellipse fill="BLACK" stroke="BLACK" cx="-478.973" cy="-589.07" rx="53.5" ry="53.5"/>
<text text-anchor="middle" x="-478.973" y="-592.87" font-family="Times New Roman,serif" font-size="14.00" fill="white">[7, 151]</text>
<text text-anchor="middle" x="-478.973" y="-577.87" font-family="Times New Roman,serif" font-size="14.00" fill="white">max = 429</text>
</g>
<!-- x012E3050&#45;&gt;x012E30A0 -->
<g id="edge1" class="edge"><title>x012E3050&#45;&gt;x012E30A0</title>
<path fill="none" stroke="black" d="M-51.2585,-717.195C-140.18,-690.558 -322.628,-635.904 -417.938,-607.353"/>
<polygon fill="black" stroke="black" points="-417.138,-603.94 -427.721,-604.423 -419.146,-610.645 -417.138,-603.94"/>
</g>
<!-- x012E3410 -->
<g id="node3" class="node"><title>x012E3410</title>
<ellipse fill="BLACK" stroke="BLACK" cx="410.476" cy="-589.07" rx="53.5" ry="53.5"/>
<text text-anchor="middle" x="410.476" y="-592.87" font-family="Times New Roman,serif" font-size="14.00" fill="white">[239, 292]</text>
<text text-anchor="middle" x="410.476" y="-577.87" font-family="Times New Roman,serif" font-size="14.00" fill="white">max = 494</text>
</g>
<!-- x012E3050&#45;&gt;x012E3410 -->
<g id="edge2" class="edge"><title>x012E3050&#45;&gt;x012E3410</title>
<path fill="none" stroke="black" d="M50.7441,-714.813C126.596,-688.299 269.273,-638.427 350.283,-610.11"/>
<polygon fill="black" stroke="black" points="351.563,-613.371 359.848,-606.767 349.253,-606.763 351.563,-613.371"/>
</g>
<!-- x012E2E70 -->
<g id="node4" class="node"><title>x012E2E70</title>
<ellipse fill="BLACK" stroke="BLACK" cx="-670.562" cy="-445.59" rx="53.5" ry="53.5"/>
<text text-anchor="middle" x="-670.562" y="-449.39" font-family="Times New Roman,serif" font-size="14.00" fill="white">[2, 59]</text>
<text text-anchor="middle" x="-670.562" y="-434.39" font-family="Times New Roman,serif" font-size="14.00" fill="white">max = 281</text>
</g>
<!-- x012E30A0&#45;&gt;x012E2E70 -->
<g id="edge3" class="edge"><title>x012E30A0&#45;&gt;x012E2E70</title>
<path fill="none" stroke="black" d="M-521.969,-556.87C-550.811,-535.271 -588.938,-506.717 -619.35,-483.942"/>
<polygon fill="black" stroke="black" points="-617.607,-480.875 -627.709,-477.682 -621.803,-486.478 -617.607,-480.875"/>
</g>
<!-- x012E2FB0 -->
<g id="node5" class="node"><title>x012E2FB0</title>
<ellipse fill="RED" stroke="RED" cx="-287.384" cy="-445.59" rx="53.5" ry="53.5"/>
<text text-anchor="middle" x="-287.384" y="-449.39" font-family="Times New Roman,serif" font-size="14.00" fill="white">[73, 82]</text>
<text text-anchor="middle" x="-287.384" y="-434.39" font-family="Times New Roman,serif" font-size="14.00" fill="white">max = 429</text>
</g>
<!-- x012E30A0&#45;&gt;x012E2FB0 -->
<g id="edge4" class="edge"><title>x012E30A0&#45;&gt;x012E2FB0</title>
<path fill="none" stroke="black" d="M-435.976,-556.87C-407.135,-535.271 -369.007,-506.717 -338.595,-483.942"/>
<polygon fill="black" stroke="black" points="-336.143,-486.478 -330.237,-477.682 -340.339,-480.875 -336.143,-486.478"/>
</g>
<!-- x012E33C0 -->
<g id="node6" class="node"><title>x012E33C0</title>
<ellipse fill="RED" stroke="RED" cx="200.688" cy="-445.59" rx="53.5" ry="53.5"/>
<text text-anchor="middle" x="200.688" y="-449.39" font-family="Times New Roman,serif" font-size="14.00" fill="white">[176, 225]</text>
<text text-anchor="middle" x="200.688" y="-434.39" font-family="Times New Roman,serif" font-size="14.00" fill="white">max = 494</text>
</g>
<!-- x012E3410&#45;&gt;x012E33C0 -->
<g id="edge5" class="edge"><title>x012E3410&#45;&gt;x012E33C0</title>
<path fill="none" stroke="black" d="M366.242,-558.817C333.328,-536.306 288.273,-505.492 253.475,-481.692"/>
<polygon fill="black" stroke="black" points="255.092,-478.558 244.862,-475.802 251.141,-484.336 255.092,-478.558"/>
</g>
<!-- x012E3320 -->
<g id="node7" class="node"><title>x012E3320</title>
<ellipse fill="RED" stroke="RED" cx="620.264" cy="-445.59" rx="53.5" ry="53.5"/>
<text text-anchor="middle" x="620.264" y="-449.39" font-family="Times New Roman,serif" font-size="14.00" fill="white">[265, 285]</text>
<text text-anchor="middle" x="620.264" y="-434.39" font-family="Times New Roman,serif" font-size="14.00" fill="white">max = 411</text>
</g>
<!-- x012E3410&#45;&gt;x012E3320 -->
<g id="edge6" class="edge"><title>x012E3410&#45;&gt;x012E3320</title>
<path fill="none" stroke="black" d="M454.711,-558.817C487.625,-536.306 532.68,-505.492 567.478,-481.692"/>
<polygon fill="black" stroke="black" points="569.812,-484.336 576.09,-475.802 565.86,-478.558 569.812,-484.336"/>
</g>
<!-- x012E2D30 -->
<g id="node8" class="node"><title>x012E2D30</title>
<ellipse fill="RED" stroke="RED" cx="-766.356" cy="-302.11" rx="53.5" ry="53.5"/>
<text text-anchor="middle" x="-766.356" y="-305.91" font-family="Times New Roman,serif" font-size="14.00" fill="white">[0, 281]</text>
<text text-anchor="middle" x="-766.356" y="-290.91" font-family="Times New Roman,serif" font-size="14.00" fill="white">max = 281</text>
</g>
<!-- x012E2E70&#45;&gt;x012E2D30 -->
<g id="edge7" class="edge"><title>x012E2E70&#45;&gt;x012E2D30</title>
<path fill="none" stroke="black" d="M-700.347,-400.979C-709.988,-386.537 -720.778,-370.376 -730.796,-355.372"/>
<polygon fill="black" stroke="black" points="-728.126,-353.067 -736.59,-346.694 -733.948,-356.954 -728.126,-353.067"/>
</g>
<!-- x012E3370 -->
<g id="node9" class="node"><title>x012E3370</title>
<ellipse fill="RED" stroke="RED" cx="-574.767" cy="-302.11" rx="53.5" ry="53.5"/>
<text text-anchor="middle" x="-574.767" y="-305.91" font-family="Times New Roman,serif" font-size="14.00" fill="white">[4, 188]</text>
<text text-anchor="middle" x="-574.767" y="-290.91" font-family="Times New Roman,serif" font-size="14.00" fill="white">max = 188</text>
</g>
<!-- x012E2E70&#45;&gt;x012E3370 -->
<g id="edge8" class="edge"><title>x012E2E70&#45;&gt;x012E3370</title>
<path fill="none" stroke="black" d="M-640.777,-400.979C-631.135,-386.537 -620.345,-370.376 -610.328,-355.372"/>
<polygon fill="black" stroke="black" points="-607.176,-356.954 -604.534,-346.694 -612.997,-353.067 -607.176,-356.954"/>
</g>
<!-- x012E30F0 -->
<g id="node10" class="node"><title>x012E30F0</title>
<ellipse fill="BLACK" stroke="BLACK" cx="-383.178" cy="-302.11" rx="53.5" ry="53.5"/>
<text text-anchor="middle" x="-383.178" y="-305.91" font-family="Times New Roman,serif" font-size="14.00" fill="white">[45, 182]</text>
<text text-anchor="middle" x="-383.178" y="-290.91" font-family="Times New Roman,serif" font-size="14.00" fill="white">max = 182</text>
</g>
<!-- x012E2FB0&#45;&gt;x012E30F0 -->
<g id="edge9" class="edge"><title>x012E2FB0&#45;&gt;x012E30F0</title>
<path fill="none" stroke="black" d="M-317.169,-400.979C-326.81,-386.537 -337.6,-370.376 -347.617,-355.372"/>
<polygon fill="black" stroke="black" points="-344.948,-353.067 -353.412,-346.694 -350.77,-356.954 -344.948,-353.067"/>
</g>
<!-- x012E3000 -->
<g id="node11" class="node"><title>x012E3000</title>
<ellipse fill="BLACK" stroke="BLACK" cx="-95.7946" cy="-302.11" rx="53.5" ry="53.5"/>
<text text-anchor="middle" x="-95.7946" y="-305.91" font-family="Times New Roman,serif" font-size="14.00" fill="white">[87, 429]</text>
<text text-anchor="middle" x="-95.7946" y="-290.91" font-family="Times New Roman,serif" font-size="14.00" fill="white">max = 429</text>
</g>
<!-- x012E2FB0&#45;&gt;x012E3000 -->
<g id="edge10" class="edge"><title>x012E2FB0&#45;&gt;x012E3000</title>
<path fill="none" stroke="black" d="M-244.387,-413.39C-215.546,-391.791 -177.418,-363.237 -147.006,-340.462"/>
<polygon fill="black" stroke="black" points="-144.554,-342.998 -138.647,-334.202 -148.75,-337.395 -144.554,-342.998"/>
</g>
<!-- x012E2D80 -->
<g id="node22" class="node"><title>x012E2D80</title>
<ellipse fill="BLACK" stroke="BLACK" cx="95.7946" cy="-302.11" rx="53.5" ry="53.5"/>
<text text-anchor="middle" x="95.7946" y="-305.91" font-family="Times New Roman,serif" font-size="14.00" fill="white">[175, 447]</text>
<text text-anchor="middle" x="95.7946" y="-290.91" font-family="Times New Roman,serif" font-size="14.00" fill="white">max = 447</text>
</g>
<!-- x012E33C0&#45;&gt;x012E2D80 -->
<g id="edge21" class="edge"><title>x012E33C0&#45;&gt;x012E2D80</title>
<path fill="none" stroke="black" d="M168.932,-402.152C157.738,-386.84 145.047,-369.48 133.415,-353.57"/>
<polygon fill="black" stroke="black" points="136.17,-351.408 127.443,-345.4 130.519,-355.539 136.17,-351.408"/>
</g>
<!-- x012E2E20 -->
<g id="node23" class="node"><title>x012E2E20</title>
<ellipse fill="BLACK" stroke="BLACK" cx="305.582" cy="-302.11" rx="53.5" ry="53.5"/>
<text text-anchor="middle" x="305.582" y="-305.91" font-family="Times New Roman,serif" font-size="14.00" fill="white">[222, 494]</text>
<text text-anchor="middle" x="305.582" y="-290.91" font-family="Times New Roman,serif" font-size="14.00" fill="white">max = 494</text>
</g>
<!-- x012E33C0&#45;&gt;x012E2E20 -->
<g id="edge22" class="edge"><title>x012E33C0&#45;&gt;x012E2E20</title>
<path fill="none" stroke="black" d="M232.445,-402.152C243.639,-386.84 256.33,-369.48 267.962,-353.57"/>
<polygon fill="black" stroke="black" points="270.858,-355.539 273.934,-345.4 265.207,-351.408 270.858,-355.539"/>
</g>
<!-- x012E3280 -->
<g id="node24" class="node"><title>x012E3280</title>
<ellipse fill="BLACK" stroke="BLACK" cx="515.37" cy="-302.11" rx="53.5" ry="53.5"/>
<text text-anchor="middle" x="515.37" y="-305.91" font-family="Times New Roman,serif" font-size="14.00" fill="white">[256, 355]</text>
<text text-anchor="middle" x="515.37" y="-290.91" font-family="Times New Roman,serif" font-size="14.00" fill="white">max = 355</text>
</g>
<!-- x012E3320&#45;&gt;x012E3280 -->
<g id="edge23" class="edge"><title>x012E3320&#45;&gt;x012E3280</title>
<path fill="none" stroke="black" d="M588.508,-402.152C577.314,-386.84 564.622,-369.48 552.991,-353.57"/>
<polygon fill="black" stroke="black" points="555.746,-351.408 547.019,-345.4 550.095,-355.539 555.746,-351.408"/>
</g>
<!-- x012E3230 -->
<g id="node25" class="node"><title>x012E3230</title>
<ellipse fill="BLACK" stroke="BLACK" cx="830.052" cy="-302.11" rx="53.5" ry="53.5"/>
<text text-anchor="middle" x="830.052" y="-305.91" font-family="Times New Roman,serif" font-size="14.00" fill="white">[373, 411]</text>
<text text-anchor="middle" x="830.052" y="-290.91" font-family="Times New Roman,serif" font-size="14.00" fill="white">max = 411</text>
</g>
<!-- x012E3320&#45;&gt;x012E3230 -->
<g id="edge24" class="edge"><title>x012E3320&#45;&gt;x012E3230</title>
<path fill="none" stroke="black" d="M664.498,-415.337C697.413,-392.826 742.467,-362.012 777.266,-338.212"/>
<polygon fill="black" stroke="black" points="779.6,-340.856 785.878,-332.322 775.648,-335.078 779.6,-340.856"/>
</g>
<!-- NIL0 -->
<g id="node12" class="node"><title>NIL0</title>
<ellipse fill="BLACK" stroke="BLACK" cx="-814.254" cy="-158.63" rx="30" ry="30"/>
<text text-anchor="middle" x="-814.254" y="-154.93" font-family="Times New Roman,serif" font-size="14.00" fill="white">NIL0</text>
</g>
<!-- x012E2D30&#45;&gt;NIL0 -->
<g id="edge11" class="edge"><title>x012E2D30&#45;&gt;NIL0</title>
<path fill="none" stroke="black" d="M-783.378,-251.12C-789.301,-233.377 -795.843,-213.781 -801.374,-197.211"/>
<polygon fill="black" stroke="black" points="-798.187,-195.706 -804.673,-187.329 -804.827,-197.922 -798.187,-195.706"/>
</g>
<!-- NIL1 -->
<g id="node13" class="node"><title>NIL1</title>
<ellipse fill="BLACK" stroke="BLACK" cx="-718.459" cy="-158.63" rx="30" ry="30"/>
<text text-anchor="middle" x="-718.459" y="-154.93" font-family="Times New Roman,serif" font-size="14.00" fill="white">NIL1</text>
</g>
<!-- x012E2D30&#45;&gt;NIL1 -->
<g id="edge12" class="edge"><title>x012E2D30&#45;&gt;NIL1</title>
<path fill="none" stroke="black" d="M-749.335,-251.12C-743.412,-233.377 -736.87,-213.781 -731.339,-197.211"/>
<polygon fill="black" stroke="black" points="-727.886,-197.922 -728.04,-187.329 -734.526,-195.706 -727.886,-197.922"/>
</g>
<!-- NIL2 -->
<g id="node14" class="node"><title>NIL2</title>
<ellipse fill="BLACK" stroke="BLACK" cx="-622.665" cy="-158.63" rx="30" ry="30"/>
<text text-anchor="middle" x="-622.665" y="-154.93" font-family="Times New Roman,serif" font-size="14.00" fill="white">NIL2</text>
</g>
<!-- x012E3370&#45;&gt;NIL2 -->
<g id="edge13" class="edge"><title>x012E3370&#45;&gt;NIL2</title>
<path fill="none" stroke="black" d="M-591.789,-251.12C-597.712,-233.377 -604.254,-213.781 -609.785,-197.211"/>
<polygon fill="black" stroke="black" points="-606.598,-195.706 -613.084,-187.329 -613.238,-197.922 -606.598,-195.706"/>
</g>
<!-- NIL3 -->
<g id="node15" class="node"><title>NIL3</title>
<ellipse fill="BLACK" stroke="BLACK" cx="-526.87" cy="-158.63" rx="30" ry="30"/>
<text text-anchor="middle" x="-526.87" y="-154.93" font-family="Times New Roman,serif" font-size="14.00" fill="white">NIL3</text>
</g>
<!-- x012E3370&#45;&gt;NIL3 -->
<g id="edge14" class="edge"><title>x012E3370&#45;&gt;NIL3</title>
<path fill="none" stroke="black" d="M-557.746,-251.12C-551.823,-233.377 -545.281,-213.781 -539.749,-197.211"/>
<polygon fill="black" stroke="black" points="-536.297,-197.922 -536.45,-187.329 -542.937,-195.706 -536.297,-197.922"/>
</g>
<!-- NIL4 -->
<g id="node16" class="node"><title>NIL4</title>
<ellipse fill="BLACK" stroke="BLACK" cx="-431.076" cy="-158.63" rx="30" ry="30"/>
<text text-anchor="middle" x="-431.076" y="-154.93" font-family="Times New Roman,serif" font-size="14.00" fill="white">NIL4</text>
</g>
<!-- x012E30F0&#45;&gt;NIL4 -->
<g id="edge15" class="edge"><title>x012E30F0&#45;&gt;NIL4</title>
<path fill="none" stroke="black" d="M-400.2,-251.12C-406.123,-233.377 -412.665,-213.781 -418.196,-197.211"/>
<polygon fill="black" stroke="black" points="-415.009,-195.706 -421.495,-187.329 -421.649,-197.922 -415.009,-195.706"/>
</g>
<!-- NIL5 -->
<g id="node17" class="node"><title>NIL5</title>
<ellipse fill="BLACK" stroke="BLACK" cx="-335.281" cy="-158.63" rx="30" ry="30"/>
<text text-anchor="middle" x="-335.281" y="-154.93" font-family="Times New Roman,serif" font-size="14.00" fill="white">NIL5</text>
</g>
<!-- x012E30F0&#45;&gt;NIL5 -->
<g id="edge16" class="edge"><title>x012E30F0&#45;&gt;NIL5</title>
<path fill="none" stroke="black" d="M-366.157,-251.12C-360.233,-233.377 -353.692,-213.781 -348.16,-197.211"/>
<polygon fill="black" stroke="black" points="-344.708,-197.922 -344.861,-187.329 -351.348,-195.706 -344.708,-197.922"/>
</g>
<!-- x012E2F60 -->
<g id="node18" class="node"><title>x012E2F60</title>
<ellipse fill="RED" stroke="RED" cx="-191.589" cy="-158.63" rx="53.5" ry="53.5"/>
<text text-anchor="middle" x="-191.589" y="-162.43" font-family="Times New Roman,serif" font-size="14.00" fill="white">[83, 331]</text>
<text text-anchor="middle" x="-191.589" y="-147.43" font-family="Times New Roman,serif" font-size="14.00" fill="white">max = 331</text>
</g>
<!-- x012E3000&#45;&gt;x012E2F60 -->
<g id="edge17" class="edge"><title>x012E3000&#45;&gt;x012E2F60</title>
<path fill="none" stroke="black" d="M-125.579,-257.499C-135.221,-243.057 -146.011,-226.896 -156.028,-211.892"/>
<polygon fill="black" stroke="black" points="-153.359,-209.587 -161.823,-203.214 -159.181,-213.474 -153.359,-209.587"/>
</g>
<!-- NIL8 -->
<g id="node19" class="node"><title>NIL8</title>
<ellipse fill="BLACK" stroke="BLACK" cx="-47.8973" cy="-158.63" rx="30" ry="30"/>
<text text-anchor="middle" x="-47.8973" y="-154.93" font-family="Times New Roman,serif" font-size="14.00" fill="white">NIL8</text>
</g>
<!-- x012E3000&#45;&gt;NIL8 -->
<g id="edge18" class="edge"><title>x012E3000&#45;&gt;NIL8</title>
<path fill="none" stroke="black" d="M-78.7729,-251.12C-72.8498,-233.377 -66.3082,-213.781 -60.7767,-197.211"/>
<polygon fill="black" stroke="black" points="-57.3242,-197.922 -57.4776,-187.329 -63.964,-195.706 -57.3242,-197.922"/>
</g>
<!-- NIL6 -->
<g id="node20" class="node"><title>NIL6</title>
<ellipse fill="BLACK" stroke="BLACK" cx="-239.486" cy="-34.447" rx="30" ry="30"/>
<text text-anchor="middle" x="-239.486" y="-30.747" font-family="Times New Roman,serif" font-size="14.00" fill="white">NIL6</text>
</g>
<!-- x012E2F60&#45;&gt;NIL6 -->
<g id="edge19" class="edge"><title>x012E2F60&#45;&gt;NIL6</title>
<path fill="none" stroke="black" d="M-210.933,-108.478C-215.592,-96.3991 -220.492,-83.6938 -224.892,-72.2847"/>
<polygon fill="black" stroke="black" points="-221.748,-70.7111 -228.612,-62.6406 -228.279,-73.2302 -221.748,-70.7111"/>
</g>
<!-- NIL7 -->
<g id="node21" class="node"><title>NIL7</title>
<ellipse fill="BLACK" stroke="BLACK" cx="-143.692" cy="-34.447" rx="30" ry="30"/>
<text text-anchor="middle" x="-143.692" y="-30.747" font-family="Times New Roman,serif" font-size="14.00" fill="white">NIL7</text>
</g>
<!-- x012E2F60&#45;&gt;NIL7 -->
<g id="edge20" class="edge"><title>x012E2F60&#45;&gt;NIL7</title>
<path fill="none" stroke="black" d="M-172.246,-108.478C-167.587,-96.3991 -162.686,-83.6938 -158.286,-72.2847"/>
<polygon fill="black" stroke="black" points="-154.899,-73.2302 -154.566,-62.6406 -161.43,-70.7111 -154.899,-73.2302"/>
</g>
<!-- NIL9 -->
<g id="node26" class="node"><title>NIL9</title>
<ellipse fill="BLACK" stroke="BLACK" cx="47.8973" cy="-158.63" rx="30" ry="30"/>
<text text-anchor="middle" x="47.8973" y="-154.93" font-family="Times New Roman,serif" font-size="14.00" fill="white">NIL9</text>
</g>
<!-- x012E2D80&#45;&gt;NIL9 -->
<g id="edge25" class="edge"><title>x012E2D80&#45;&gt;NIL9</title>
<path fill="none" stroke="black" d="M78.7729,-251.12C72.8498,-233.377 66.3082,-213.781 60.7767,-197.211"/>
<polygon fill="black" stroke="black" points="63.964,-195.706 57.4776,-187.329 57.3242,-197.922 63.964,-195.706"/>
</g>
<!-- NIL10 -->
<g id="node27" class="node"><title>NIL10</title>
<ellipse fill="BLACK" stroke="BLACK" cx="148.242" cy="-158.63" rx="34.5" ry="34.5"/>
<text text-anchor="middle" x="148.242" y="-154.93" font-family="Times New Roman,serif" font-size="14.00" fill="white">NIL10</text>
</g>
<!-- x012E2D80&#45;&gt;NIL10 -->
<g id="edge26" class="edge"><title>x012E2D80&#45;&gt;NIL10</title>
<path fill="none" stroke="black" d="M114.285,-251.524C120.342,-234.954 127.004,-216.731 132.81,-200.847"/>
<polygon fill="black" stroke="black" points="136.156,-201.888 136.302,-191.294 129.581,-199.485 136.156,-201.888"/>
</g>
<!-- NIL11 -->
<g id="node28" class="node"><title>NIL11</title>
<ellipse fill="BLACK" stroke="BLACK" cx="253.135" cy="-158.63" rx="34.5" ry="34.5"/>
<text text-anchor="middle" x="253.135" y="-154.93" font-family="Times New Roman,serif" font-size="14.00" fill="white">NIL11</text>
</g>
<!-- x012E2E20&#45;&gt;NIL11 -->
<g id="edge27" class="edge"><title>x012E2E20&#45;&gt;NIL11</title>
<path fill="none" stroke="black" d="M287.092,-251.524C281.035,-234.954 274.373,-216.731 268.567,-200.847"/>
<polygon fill="black" stroke="black" points="271.796,-199.485 265.075,-191.294 265.221,-201.888 271.796,-199.485"/>
</g>
<!-- NIL12 -->
<g id="node29" class="node"><title>NIL12</title>
<ellipse fill="BLACK" stroke="BLACK" cx="358.029" cy="-158.63" rx="34.5" ry="34.5"/>
<text text-anchor="middle" x="358.029" y="-154.93" font-family="Times New Roman,serif" font-size="14.00" fill="white">NIL12</text>
</g>
<!-- x012E2E20&#45;&gt;NIL12 -->
<g id="edge28" class="edge"><title>x012E2E20&#45;&gt;NIL12</title>
<path fill="none" stroke="black" d="M324.073,-251.524C330.13,-234.954 336.791,-216.731 342.598,-200.847"/>
<polygon fill="black" stroke="black" points="345.943,-201.888 346.089,-191.294 339.369,-199.485 345.943,-201.888"/>
</g>
<!-- NIL13 -->
<g id="node30" class="node"><title>NIL13</title>
<ellipse fill="BLACK" stroke="BLACK" cx="462.923" cy="-158.63" rx="34.5" ry="34.5"/>
<text text-anchor="middle" x="462.923" y="-154.93" font-family="Times New Roman,serif" font-size="14.00" fill="white">NIL13</text>
</g>
<!-- x012E3280&#45;&gt;NIL13 -->
<g id="edge29" class="edge"><title>x012E3280&#45;&gt;NIL13</title>
<path fill="none" stroke="black" d="M496.879,-251.524C490.823,-234.954 484.161,-216.731 478.355,-200.847"/>
<polygon fill="black" stroke="black" points="481.584,-199.485 474.863,-191.294 475.009,-201.888 481.584,-199.485"/>
</g>
<!-- NIL14 -->
<g id="node31" class="node"><title>NIL14</title>
<ellipse fill="BLACK" stroke="BLACK" cx="567.817" cy="-158.63" rx="34.5" ry="34.5"/>
<text text-anchor="middle" x="567.817" y="-154.93" font-family="Times New Roman,serif" font-size="14.00" fill="white">NIL14</text>
</g>
<!-- x012E3280&#45;&gt;NIL14 -->
<g id="edge30" class="edge"><title>x012E3280&#45;&gt;NIL14</title>
<path fill="none" stroke="black" d="M533.861,-251.524C539.918,-234.954 546.579,-216.731 552.386,-200.847"/>
<polygon fill="black" stroke="black" points="555.731,-201.888 555.877,-191.294 549.157,-199.485 555.731,-201.888"/>
</g>
<!-- x012E32D0 -->
<g id="node32" class="node"><title>x012E32D0</title>
<ellipse fill="RED" stroke="RED" cx="725.158" cy="-158.63" rx="53.5" ry="53.5"/>
<text text-anchor="middle" x="725.158" y="-162.43" font-family="Times New Roman,serif" font-size="14.00" fill="white">[300, 303]</text>
<text text-anchor="middle" x="725.158" y="-147.43" font-family="Times New Roman,serif" font-size="14.00" fill="white">max = 303</text>
</g>
<!-- x012E3230&#45;&gt;x012E32D0 -->
<g id="edge31" class="edge"><title>x012E3230&#45;&gt;x012E32D0</title>
<path fill="none" stroke="black" d="M798.296,-258.672C787.102,-243.36 774.41,-226 762.779,-210.09"/>
<polygon fill="black" stroke="black" points="765.534,-207.928 756.806,-201.92 759.883,-212.059 765.534,-207.928"/>
</g>
<!-- x012E3460 -->
<g id="node33" class="node"><title>x012E3460</title>
<ellipse fill="RED" stroke="RED" cx="934.946" cy="-158.63" rx="53.5" ry="53.5"/>
<text text-anchor="middle" x="934.946" y="-162.43" font-family="Times New Roman,serif" font-size="14.00" fill="white">[391, 401]</text>
<text text-anchor="middle" x="934.946" y="-147.43" font-family="Times New Roman,serif" font-size="14.00" fill="white">max = 401</text>
</g>
<!-- x012E3230&#45;&gt;x012E3460 -->
<g id="edge32" class="edge"><title>x012E3230&#45;&gt;x012E3460</title>
<path fill="none" stroke="black" d="M861.808,-258.672C873.002,-243.36 885.694,-226 897.325,-210.09"/>
<polygon fill="black" stroke="black" points="900.221,-212.059 903.298,-201.92 894.57,-207.928 900.221,-212.059"/>
</g>
<!-- NIL15 -->
<g id="node34" class="node"><title>NIL15</title>
<ellipse fill="BLACK" stroke="BLACK" cx="672.711" cy="-34.447" rx="34.5" ry="34.5"/>
<text text-anchor="middle" x="672.711" y="-30.747" font-family="Times New Roman,serif" font-size="14.00" fill="white">NIL15</text>
</g>
<!-- x012E32D0&#45;&gt;NIL15 -->
<g id="edge33" class="edge"><title>x012E32D0&#45;&gt;NIL15</title>
<path fill="none" stroke="black" d="M704.279,-109.193C699.642,-98.2143 694.773,-86.6846 690.284,-76.0565"/>
<polygon fill="black" stroke="black" points="693.402,-74.4416 686.287,-66.5912 686.953,-77.1651 693.402,-74.4416"/>
</g>
<!-- NIL16 -->
<g id="node35" class="node"><title>NIL16</title>
<ellipse fill="BLACK" stroke="BLACK" cx="777.605" cy="-34.447" rx="34.5" ry="34.5"/>
<text text-anchor="middle" x="777.605" y="-30.747" font-family="Times New Roman,serif" font-size="14.00" fill="white">NIL16</text>
</g>
<!-- x012E32D0&#45;&gt;NIL16 -->
<g id="edge34" class="edge"><title>x012E32D0&#45;&gt;NIL16</title>
<path fill="none" stroke="black" d="M746.037,-109.193C750.674,-98.2143 755.543,-86.6846 760.032,-76.0565"/>
<polygon fill="black" stroke="black" points="763.363,-77.1651 764.029,-66.5912 756.914,-74.4416 763.363,-77.1651"/>
</g>
<!-- NIL17 -->
<g id="node36" class="node"><title>NIL17</title>
<ellipse fill="BLACK" stroke="BLACK" cx="882.499" cy="-34.447" rx="34.5" ry="34.5"/>
<text text-anchor="middle" x="882.499" y="-30.747" font-family="Times New Roman,serif" font-size="14.00" fill="white">NIL17</text>
</g>
<!-- x012E3460&#45;&gt;NIL17 -->
<g id="edge35" class="edge"><title>x012E3460&#45;&gt;NIL17</title>
<path fill="none" stroke="black" d="M914.067,-109.193C909.43,-98.2143 904.561,-86.6846 900.072,-76.0565"/>
<polygon fill="black" stroke="black" points="903.19,-74.4416 896.075,-66.5912 896.741,-77.1651 903.19,-74.4416"/>
</g>
<!-- NIL18 -->
<g id="node37" class="node"><title>NIL18</title>
<ellipse fill="BLACK" stroke="BLACK" cx="987.393" cy="-34.447" rx="34.5" ry="34.5"/>
<text text-anchor="middle" x="987.393" y="-30.747" font-family="Times New Roman,serif" font-size="14.00" fill="white">NIL18</text>
</g>
<!-- x012E3460&#45;&gt;NIL18 -->
<g id="edge36" class="edge"><title>x012E3460&#45;&gt;NIL18</title>
<path fill="none" stroke="black" d="M955.825,-109.193C960.462,-98.2143 965.331,-86.6846 969.82,-76.0565"/>
<polygon fill="black" stroke="black" points="973.151,-77.1651 973.817,-66.5912 966.702,-74.4416 973.151,-77.1651"/>
</g>
</g>
</svg>
