<?xml version="1.0" encoding="UTF-8" standalone="no"?>
<!DOCTYPE svg PUBLIC "-//W3C//DTD SVG 1.1//EN"
 "http://www.w3.org/Graphics/SVG/1.1/DTD/svg11.dtd">
<!-- Generated by graphviz version 2.38.0 (20140413.2041)
 -->
<!-- Title: RBTree Pages: 1 -->
<svg width="2084pt" height="686pt"
 viewBox="0.00 0.00 2083.93 685.56" xmlns="http://www.w3.org/2000/svg" xmlns:xlink="http://www.w3.org/1999/xlink">
<g id="graph0" class="graph" transform="scale(1 1) rotate(0) translate(1363.62 681.46)">
<title>RBTree</title>
<polygon fill="white" stroke="none" points="-1363.62,4.103 -1363.62,-681.46 720.31,-681.46 720.31,4.103 -1363.62,4.103"/>
<!-- x00CEEFF0 -->
<g id="node1" class="node"><title>x00CEEFF0</title>
<ellipse fill="BLACK" stroke="BLACK" cx="0" cy="-644.96" rx="32.5" ry="32.5"/>
<text text-anchor="middle" x="0" y="-641.26" font-family="Times New Roman,serif" font-size="14.00" fill="white">19169</text>
</g>
<!-- x00CEEF60 -->
<g id="node2" class="node"><title>x00CEEF60</title>
<ellipse fill="RED" stroke="RED" cx="-706.959" cy="-543.97" rx="28.5" ry="28.5"/>
<text text-anchor="middle" x="-706.959" y="-540.27" font-family="Times New Roman,serif" font-size="14.00" fill="white">6334</text>
</g>
<!-- x00CEEFF0&#45;&gt;x00CEEF60 -->
<g id="edge1" class="edge"><title>x00CEEFF0&#45;&gt;x00CEEF60</title>
<path fill="none" stroke="black" d="M-32.2136,-640.358C-148.08,-623.807 -543.389,-567.336 -668.597,-549.45"/>
<polygon fill="black" stroke="black" points="-668.11,-545.984 -678.504,-548.035 -669.1,-552.914 -668.11,-545.984"/>
</g>
<!-- x00CEEDF8 -->
<g id="node3" class="node"><title>x00CEEDF8</title>
<ellipse fill="BLACK" stroke="BLACK" cx="419.576" cy="-543.97" rx="32.5" ry="32.5"/>
<text text-anchor="middle" x="419.576" y="-540.27" font-family="Times New Roman,serif" font-size="14.00" fill="white">26962</text>
</g>
<!-- x00CEEFF0&#45;&gt;x00CEEDF8 -->
<g id="edge2" class="edge"><title>x00CEEFF0&#45;&gt;x00CEEDF8</title>
<path fill="none" stroke="black" d="M31.8807,-637.286C106.782,-619.258 293.959,-574.205 377.807,-554.024"/>
<polygon fill="black" stroke="black" points="378.84,-557.375 387.743,-551.632 377.202,-550.569 378.84,-557.375"/>
</g>
<!-- x00CEF110 -->
<g id="node4" class="node"><title>x00CEF110</title>
<ellipse fill="BLACK" stroke="BLACK" cx="-1185.93" cy="-442.97" rx="24" ry="24"/>
<text text-anchor="middle" x="-1185.93" y="-439.27" font-family="Times New Roman,serif" font-size="14.00" fill="white">491</text>
</g>
<!-- x00CEEF60&#45;&gt;x00CEF110 -->
<g id="edge3" class="edge"><title>x00CEEF60&#45;&gt;x00CEF110</title>
<path fill="none" stroke="black" d="M-735.133,-538.029C-818.366,-520.478 -1062.91,-468.911 -1152.53,-450.014"/>
<polygon fill="black" stroke="black" points="-1151.91,-446.566 -1162.42,-447.928 -1153.36,-453.416 -1151.91,-446.566"/>
</g>
<!-- x00CEECD8 -->
<g id="node5" class="node"><title>x00CEECD8</title>
<ellipse fill="BLACK" stroke="BLACK" cx="-314.682" cy="-442.97" rx="32.5" ry="32.5"/>
<text text-anchor="middle" x="-314.682" y="-439.27" font-family="Times New Roman,serif" font-size="14.00" fill="white">15724</text>
</g>
<!-- x00CEEF60&#45;&gt;x00CEECD8 -->
<g id="edge4" class="edge"><title>x00CEEF60&#45;&gt;x00CEECD8</title>
<path fill="none" stroke="black" d="M-679.062,-536.787C-610.996,-519.262 -436.129,-474.239 -355.958,-453.598"/>
<polygon fill="black" stroke="black" points="-355.019,-456.97 -346.207,-451.087 -356.764,-450.191 -355.019,-456.97"/>
</g>
<!-- x00CEF038 -->
<g id="node6" class="node"><title>x00CEF038</title>
<ellipse fill="BLACK" stroke="BLACK" cx="209.788" cy="-442.97" rx="32.5" ry="32.5"/>
<text text-anchor="middle" x="209.788" y="-439.27" font-family="Times New Roman,serif" font-size="14.00" fill="white">24464</text>
</g>
<!-- x00CEEDF8&#45;&gt;x00CEF038 -->
<g id="edge5" class="edge"><title>x00CEEDF8&#45;&gt;x00CEF038</title>
<path fill="none" stroke="black" d="M389.963,-529.713C352.87,-511.855 289.23,-481.217 248.362,-461.541"/>
<polygon fill="black" stroke="black" points="249.778,-458.338 239.25,-457.154 246.742,-464.646 249.778,-458.338"/>
</g>
<!-- x00CEED20 -->
<g id="node7" class="node"><title>x00CEED20</title>
<ellipse fill="BLACK" stroke="BLACK" cx="629.364" cy="-442.97" rx="32.5" ry="32.5"/>
<text text-anchor="middle" x="629.364" y="-439.27" font-family="Times New Roman,serif" font-size="14.00" fill="white">29358</text>
</g>
<!-- x00CEEDF8&#45;&gt;x00CEED20 -->
<g id="edge6" class="edge"><title>x00CEEDF8&#45;&gt;x00CEED20</title>
<path fill="none" stroke="black" d="M449.188,-529.713C486.282,-511.855 549.921,-481.217 590.789,-461.541"/>
<polygon fill="black" stroke="black" points="592.41,-464.646 599.902,-457.154 589.373,-458.338 592.41,-464.646"/>
</g>
<!-- x00CEF080 -->
<g id="node8" class="node"><title>x00CEF080</title>
<ellipse fill="BLACK" stroke="BLACK" cx="-1281.73" cy="-340.03" rx="19.5" ry="19.5"/>
<text text-anchor="middle" x="-1281.73" y="-336.33" font-family="Times New Roman,serif" font-size="14.00" fill="white">41</text>
</g>
<!-- x00CEF110&#45;&gt;x00CEF080 -->
<g id="edge7" class="edge"><title>x00CEF110&#45;&gt;x00CEF080</title>
<path fill="none" stroke="black" d="M-1202.62,-425.039C-1218.94,-407.499 -1243.83,-380.754 -1261.32,-361.957"/>
<polygon fill="black" stroke="black" points="-1258.94,-359.374 -1268.32,-354.438 -1264.07,-364.143 -1258.94,-359.374"/>
</g>
<!-- x00CEE978 -->
<g id="node9" class="node"><title>x00CEE978</title>
<ellipse fill="RED" stroke="RED" cx="-994.343" cy="-340.03" rx="28.5" ry="28.5"/>
<text text-anchor="middle" x="-994.343" y="-336.33" font-family="Times New Roman,serif" font-size="14.00" fill="white">4827</text>
</g>
<!-- x00CEF110&#45;&gt;x00CEE978 -->
<g id="edge8" class="edge"><title>x00CEF110&#45;&gt;x00CEE978</title>
<path fill="none" stroke="black" d="M-1164.7,-431.56C-1131.78,-413.872 -1068.11,-379.663 -1028.62,-358.445"/>
<polygon fill="black" stroke="black" points="-1026.77,-361.424 -1019.61,-353.608 -1030.08,-355.257 -1026.77,-361.424"/>
</g>
<!-- x00CEEDB0 -->
<g id="node10" class="node"><title>x00CEEDB0</title>
<ellipse fill="BLACK" stroke="BLACK" cx="-515.37" cy="-340.03" rx="32.5" ry="32.5"/>
<text text-anchor="middle" x="-515.37" y="-336.33" font-family="Times New Roman,serif" font-size="14.00" fill="white">11478</text>
</g>
<!-- x00CEECD8&#45;&gt;x00CEEDB0 -->
<g id="edge9" class="edge"><title>x00CEECD8&#45;&gt;x00CEEDB0</title>
<path fill="none" stroke="black" d="M-343.864,-428.002C-379.089,-409.933 -438.419,-379.501 -477.236,-359.59"/>
<polygon fill="black" stroke="black" points="-475.658,-356.466 -486.153,-355.016 -478.853,-362.695 -475.658,-356.466"/>
</g>
<!-- x00CEEFA8 -->
<g id="node11" class="node"><title>x00CEEFA8</title>
<ellipse fill="BLACK" stroke="BLACK" cx="-104.894" cy="-340.03" rx="32.5" ry="32.5"/>
<text text-anchor="middle" x="-104.894" y="-336.33" font-family="Times New Roman,serif" font-size="14.00" fill="white">18467</text>
</g>
<!-- x00CEECD8&#45;&gt;x00CEEFA8 -->
<g id="edge10" class="edge"><title>x00CEECD8&#45;&gt;x00CEEFA8</title>
<path fill="none" stroke="black" d="M-285.069,-428.44C-247.976,-410.238 -184.336,-379.011 -143.468,-358.958"/>
<polygon fill="black" stroke="black" points="-141.791,-362.034 -134.356,-354.487 -144.875,-355.75 -141.791,-362.034"/>
</g>
<!-- x00CEEED0 -->
<g id="node32" class="node"><title>x00CEEED0</title>
<ellipse fill="RED" stroke="RED" cx="104.894" cy="-340.03" rx="32.5" ry="32.5"/>
<text text-anchor="middle" x="104.894" y="-336.33" font-family="Times New Roman,serif" font-size="14.00" fill="white">23281</text>
</g>
<!-- x00CEF038&#45;&gt;x00CEEED0 -->
<g id="edge31" class="edge"><title>x00CEF038&#45;&gt;x00CEEED0</title>
<path fill="none" stroke="black" d="M186.508,-420.124C171.434,-405.331 151.647,-385.912 135.331,-369.9"/>
<polygon fill="black" stroke="black" points="137.697,-367.318 128.108,-362.812 132.794,-372.314 137.697,-367.318"/>
</g>
<!-- x00CEEBB8 -->
<g id="node33" class="node"><title>x00CEEBB8</title>
<ellipse fill="RED" stroke="RED" cx="314.682" cy="-340.03" rx="32.5" ry="32.5"/>
<text text-anchor="middle" x="314.682" y="-336.33" font-family="Times New Roman,serif" font-size="14.00" fill="white">26500</text>
</g>
<!-- x00CEF038&#45;&gt;x00CEEBB8 -->
<g id="edge32" class="edge"><title>x00CEF038&#45;&gt;x00CEEBB8</title>
<path fill="none" stroke="black" d="M233.067,-420.124C248.141,-405.331 267.929,-385.912 284.245,-369.9"/>
<polygon fill="black" stroke="black" points="286.782,-372.314 291.467,-362.812 281.879,-367.318 286.782,-372.314"/>
</g>
<!-- x00CEEE88 -->
<g id="node34" class="node"><title>x00CEEE88</title>
<ellipse fill="RED" stroke="RED" cx="524.47" cy="-340.03" rx="32.5" ry="32.5"/>
<text text-anchor="middle" x="524.47" y="-336.33" font-family="Times New Roman,serif" font-size="14.00" fill="white">28145</text>
</g>
<!-- x00CEED20&#45;&gt;x00CEEE88 -->
<g id="edge33" class="edge"><title>x00CEED20&#45;&gt;x00CEEE88</title>
<path fill="none" stroke="black" d="M606.084,-420.124C591.01,-405.331 571.223,-385.912 554.907,-369.9"/>
<polygon fill="black" stroke="black" points="557.273,-367.318 547.684,-362.812 552.37,-372.314 557.273,-367.318"/>
</g>
<!-- NIL20 -->
<g id="node35" class="node"><title>NIL20</title>
<ellipse fill="BLACK" stroke="BLACK" cx="681.81" cy="-340.03" rx="34.5" ry="34.5"/>
<text text-anchor="middle" x="681.81" y="-336.33" font-family="Times New Roman,serif" font-size="14.00" fill="white">NIL20</text>
</g>
<!-- x00CEED20&#45;&gt;NIL20 -->
<g id="edge34" class="edge"><title>x00CEED20&#45;&gt;NIL20</title>
<path fill="none" stroke="black" d="M644.252,-413.747C649.552,-403.345 655.617,-391.442 661.304,-380.278"/>
<polygon fill="black" stroke="black" points="664.547,-381.624 665.968,-371.125 658.31,-378.446 664.547,-381.624"/>
</g>
<!-- NIL0 -->
<g id="node12" class="node"><title>NIL0</title>
<ellipse fill="BLACK" stroke="BLACK" cx="-1329.62" cy="-235.14" rx="30" ry="30"/>
<text text-anchor="middle" x="-1329.62" y="-231.44" font-family="Times New Roman,serif" font-size="14.00" fill="white">NIL0</text>
</g>
<!-- x00CEF080&#45;&gt;NIL0 -->
<g id="edge11" class="edge"><title>x00CEF080&#45;&gt;NIL0</title>
<path fill="none" stroke="black" d="M-1289.85,-322.237C-1296.16,-308.428 -1305.11,-288.819 -1312.93,-271.702"/>
<polygon fill="black" stroke="black" points="-1309.79,-270.144 -1317.13,-262.502 -1316.16,-273.052 -1309.79,-270.144"/>
</g>
<!-- NIL1 -->
<g id="node13" class="node"><title>NIL1</title>
<ellipse fill="BLACK" stroke="BLACK" cx="-1233.83" cy="-235.14" rx="30" ry="30"/>
<text text-anchor="middle" x="-1233.83" y="-231.44" font-family="Times New Roman,serif" font-size="14.00" fill="white">NIL1</text>
</g>
<!-- x00CEF080&#45;&gt;NIL1 -->
<g id="edge12" class="edge"><title>x00CEF080&#45;&gt;NIL1</title>
<path fill="none" stroke="black" d="M-1273.6,-322.237C-1267.3,-308.428 -1258.34,-288.819 -1250.53,-271.702"/>
<polygon fill="black" stroke="black" points="-1247.29,-273.052 -1246.32,-262.502 -1253.66,-270.144 -1247.29,-273.052"/>
</g>
<!-- x00CEEC00 -->
<g id="node14" class="node"><title>x00CEEC00</title>
<ellipse fill="BLACK" stroke="BLACK" cx="-1090.14" cy="-235.14" rx="28.5" ry="28.5"/>
<text text-anchor="middle" x="-1090.14" y="-231.44" font-family="Times New Roman,serif" font-size="14.00" fill="white">2995</text>
</g>
<!-- x00CEE978&#45;&gt;x00CEEC00 -->
<g id="edge13" class="edge"><title>x00CEE978&#45;&gt;x00CEEC00</title>
<path fill="none" stroke="black" d="M-1013.73,-318.804C-1028.14,-303.023 -1047.97,-281.312 -1063.81,-263.962"/>
<polygon fill="black" stroke="black" points="-1061.45,-261.358 -1070.78,-256.334 -1066.62,-266.079 -1061.45,-261.358"/>
</g>
<!-- x00CEEE40 -->
<g id="node15" class="node"><title>x00CEEE40</title>
<ellipse fill="BLACK" stroke="BLACK" cx="-802.754" cy="-235.14" rx="28.5" ry="28.5"/>
<text text-anchor="middle" x="-802.754" y="-231.44" font-family="Times New Roman,serif" font-size="14.00" fill="white">5705</text>
</g>
<!-- x00CEE978&#45;&gt;x00CEEE40 -->
<g id="edge14" class="edge"><title>x00CEE978&#45;&gt;x00CEEE40</title>
<path fill="none" stroke="black" d="M-969.296,-326.317C-935.447,-307.786 -874.97,-274.676 -836.957,-253.865"/>
<polygon fill="black" stroke="black" points="-834.898,-256.728 -827.807,-248.856 -838.259,-250.588 -834.898,-256.728"/>
</g>
<!-- x00CEF0C8 -->
<g id="node22" class="node"><title>x00CEF0C8</title>
<ellipse fill="RED" stroke="RED" cx="-611.165" cy="-235.14" rx="28.5" ry="28.5"/>
<text text-anchor="middle" x="-611.165" y="-231.44" font-family="Times New Roman,serif" font-size="14.00" fill="white">9961</text>
</g>
<!-- x00CEEDB0&#45;&gt;x00CEF0C8 -->
<g id="edge21" class="edge"><title>x00CEEDB0&#45;&gt;x00CEF0C8</title>
<path fill="none" stroke="black" d="M-537.347,-315.966C-551.494,-300.477 -569.956,-280.261 -584.878,-263.922"/>
<polygon fill="black" stroke="black" points="-582.557,-261.274 -591.885,-256.251 -587.725,-265.995 -582.557,-261.274"/>
</g>
<!-- x00CEEB28 -->
<g id="node23" class="node"><title>x00CEEB28</title>
<ellipse fill="RED" stroke="RED" cx="-419.576" cy="-235.14" rx="32.5" ry="32.5"/>
<text text-anchor="middle" x="-419.576" y="-231.44" font-family="Times New Roman,serif" font-size="14.00" fill="white">11942</text>
</g>
<!-- x00CEEDB0&#45;&gt;x00CEEB28 -->
<g id="edge22" class="edge"><title>x00CEEDB0&#45;&gt;x00CEEB28</title>
<path fill="none" stroke="black" d="M-493.393,-315.966C-480.101,-301.412 -462.999,-282.686 -448.603,-266.924"/>
<polygon fill="black" stroke="black" points="-445.942,-269.199 -441.782,-259.455 -451.11,-264.479 -445.942,-269.199"/>
</g>
<!-- x00CEE9C0 -->
<g id="node24" class="node"><title>x00CEE9C0</title>
<ellipse fill="RED" stroke="RED" cx="-209.788" cy="-235.14" rx="32.5" ry="32.5"/>
<text text-anchor="middle" x="-209.788" y="-231.44" font-family="Times New Roman,serif" font-size="14.00" fill="white">16827</text>
</g>
<!-- x00CEEFA8&#45;&gt;x00CEE9C0 -->
<g id="edge23" class="edge"><title>x00CEEFA8&#45;&gt;x00CEE9C0</title>
<path fill="none" stroke="black" d="M-127.913,-317.011C-142.975,-301.95 -162.824,-282.102 -179.206,-265.72"/>
<polygon fill="black" stroke="black" points="-176.914,-263.063 -186.46,-258.467 -181.863,-268.013 -176.914,-263.063"/>
</g>
<!-- NIL13 -->
<g id="node25" class="node"><title>NIL13</title>
<ellipse fill="BLACK" stroke="BLACK" cx="-52.447" cy="-235.14" rx="34.5" ry="34.5"/>
<text text-anchor="middle" x="-52.447" y="-231.44" font-family="Times New Roman,serif" font-size="14.00" fill="white">NIL13</text>
</g>
<!-- x00CEEFA8&#45;&gt;NIL13 -->
<g id="edge24" class="edge"><title>x00CEEFA8&#45;&gt;NIL13</title>
<path fill="none" stroke="black" d="M-90.2845,-310.812C-84.7838,-299.811 -78.4286,-287.101 -72.5159,-275.276"/>
<polygon fill="black" stroke="black" points="-69.2354,-276.542 -67.8936,-266.032 -75.4964,-273.411 -69.2354,-276.542"/>
</g>
<!-- NIL2 -->
<g id="node16" class="node"><title>NIL2</title>
<ellipse fill="BLACK" stroke="BLACK" cx="-1138.03" cy="-130.24" rx="30" ry="30"/>
<text text-anchor="middle" x="-1138.03" y="-126.54" font-family="Times New Roman,serif" font-size="14.00" fill="white">NIL2</text>
</g>
<!-- x00CEEC00&#45;&gt;NIL2 -->
<g id="edge15" class="edge"><title>x00CEEC00&#45;&gt;NIL2</title>
<path fill="none" stroke="black" d="M-1101.98,-209.21C-1107.78,-196.491 -1114.88,-180.95 -1121.24,-167.029"/>
<polygon fill="black" stroke="black" points="-1118.16,-165.348 -1125.49,-157.705 -1124.52,-168.255 -1118.16,-165.348"/>
</g>
<!-- NIL3 -->
<g id="node17" class="node"><title>NIL3</title>
<ellipse fill="BLACK" stroke="BLACK" cx="-1042.24" cy="-130.24" rx="30" ry="30"/>
<text text-anchor="middle" x="-1042.24" y="-126.54" font-family="Times New Roman,serif" font-size="14.00" fill="white">NIL3</text>
</g>
<!-- x00CEEC00&#45;&gt;NIL3 -->
<g id="edge16" class="edge"><title>x00CEEC00&#45;&gt;NIL3</title>
<path fill="none" stroke="black" d="M-1078.3,-209.21C-1072.49,-196.491 -1065.39,-180.95 -1059.04,-167.029"/>
<polygon fill="black" stroke="black" points="-1055.75,-168.255 -1054.78,-157.705 -1062.12,-165.348 -1055.75,-168.255"/>
</g>
<!-- x00CEEC48 -->
<g id="node18" class="node"><title>x00CEEC48</title>
<ellipse fill="RED" stroke="RED" cx="-898.548" cy="-130.24" rx="28.5" ry="28.5"/>
<text text-anchor="middle" x="-898.548" y="-126.54" font-family="Times New Roman,serif" font-size="14.00" fill="white">5436</text>
</g>
<!-- x00CEEE40&#45;&gt;x00CEEC48 -->
<g id="edge17" class="edge"><title>x00CEEE40&#45;&gt;x00CEEC48</title>
<path fill="none" stroke="black" d="M-822.139,-213.912C-836.552,-198.129 -856.38,-176.417 -872.225,-159.065"/>
<polygon fill="black" stroke="black" points="-869.864,-156.461 -879.192,-151.437 -875.033,-161.181 -869.864,-156.461"/>
</g>
<!-- NIL6 -->
<g id="node19" class="node"><title>NIL6</title>
<ellipse fill="BLACK" stroke="BLACK" cx="-754.857" cy="-130.24" rx="30" ry="30"/>
<text text-anchor="middle" x="-754.857" y="-126.54" font-family="Times New Roman,serif" font-size="14.00" fill="white">NIL6</text>
</g>
<!-- x00CEEE40&#45;&gt;NIL6 -->
<g id="edge18" class="edge"><title>x00CEEE40&#45;&gt;NIL6</title>
<path fill="none" stroke="black" d="M-790.914,-209.21C-785.107,-196.491 -778.011,-180.95 -771.654,-167.029"/>
<polygon fill="black" stroke="black" points="-768.367,-168.255 -767.397,-157.705 -774.734,-165.348 -768.367,-168.255"/>
</g>
<!-- NIL4 -->
<g id="node20" class="node"><title>NIL4</title>
<ellipse fill="BLACK" stroke="BLACK" cx="-946.446" cy="-29.897" rx="30" ry="30"/>
<text text-anchor="middle" x="-946.446" y="-26.197" font-family="Times New Roman,serif" font-size="14.00" fill="white">NIL4</text>
</g>
<!-- x00CEEC48&#45;&gt;NIL4 -->
<g id="edge19" class="edge"><title>x00CEEC48&#45;&gt;NIL4</title>
<path fill="none" stroke="black" d="M-910.883,-104.399C-916.405,-92.8309 -923.014,-78.9856 -929.028,-66.3866"/>
<polygon fill="black" stroke="black" points="-926.017,-64.5702 -933.483,-57.0533 -932.334,-67.5857 -926.017,-64.5702"/>
</g>
<!-- NIL5 -->
<g id="node21" class="node"><title>NIL5</title>
<ellipse fill="BLACK" stroke="BLACK" cx="-850.651" cy="-29.897" rx="30" ry="30"/>
<text text-anchor="middle" x="-850.651" y="-26.197" font-family="Times New Roman,serif" font-size="14.00" fill="white">NIL5</text>
</g>
<!-- x00CEEC48&#45;&gt;NIL5 -->
<g id="edge20" class="edge"><title>x00CEEC48&#45;&gt;NIL5</title>
<path fill="none" stroke="black" d="M-886.214,-104.399C-880.692,-92.8309 -874.083,-78.9856 -868.069,-66.3866"/>
<polygon fill="black" stroke="black" points="-864.763,-67.5857 -863.614,-57.0533 -871.08,-64.5702 -864.763,-67.5857"/>
</g>
<!-- NIL7 -->
<g id="node26" class="node"><title>NIL7</title>
<ellipse fill="BLACK" stroke="BLACK" cx="-659.062" cy="-130.24" rx="30" ry="30"/>
<text text-anchor="middle" x="-659.062" y="-126.54" font-family="Times New Roman,serif" font-size="14.00" fill="white">NIL7</text>
</g>
<!-- x00CEF0C8&#45;&gt;NIL7 -->
<g id="edge25" class="edge"><title>x00CEF0C8&#45;&gt;NIL7</title>
<path fill="none" stroke="black" d="M-623.005,-209.21C-628.812,-196.491 -635.908,-180.95 -642.264,-167.029"/>
<polygon fill="black" stroke="black" points="-639.184,-165.348 -646.522,-157.705 -645.552,-168.255 -639.184,-165.348"/>
</g>
<!-- NIL8 -->
<g id="node27" class="node"><title>NIL8</title>
<ellipse fill="BLACK" stroke="BLACK" cx="-563.268" cy="-130.24" rx="30" ry="30"/>
<text text-anchor="middle" x="-563.268" y="-126.54" font-family="Times New Roman,serif" font-size="14.00" fill="white">NIL8</text>
</g>
<!-- x00CEF0C8&#45;&gt;NIL8 -->
<g id="edge26" class="edge"><title>x00CEF0C8&#45;&gt;NIL8</title>
<path fill="none" stroke="black" d="M-599.325,-209.21C-593.518,-196.491 -586.422,-180.95 -580.065,-167.029"/>
<polygon fill="black" stroke="black" points="-576.778,-168.255 -575.808,-157.705 -583.145,-165.348 -576.778,-168.255"/>
</g>
<!-- NIL9 -->
<g id="node28" class="node"><title>NIL9</title>
<ellipse fill="BLACK" stroke="BLACK" cx="-467.473" cy="-130.24" rx="30" ry="30"/>
<text text-anchor="middle" x="-467.473" y="-126.54" font-family="Times New Roman,serif" font-size="14.00" fill="white">NIL9</text>
</g>
<!-- x00CEEB28&#45;&gt;NIL9 -->
<g id="edge27" class="edge"><title>x00CEEB28&#45;&gt;NIL9</title>
<path fill="none" stroke="black" d="M-433.173,-205.36C-438.639,-193.39 -444.995,-179.468 -450.741,-166.885"/>
<polygon fill="black" stroke="black" points="-447.653,-165.222 -454.99,-157.579 -454.02,-168.129 -447.653,-165.222"/>
</g>
<!-- NIL10 -->
<g id="node29" class="node"><title>NIL10</title>
<ellipse fill="BLACK" stroke="BLACK" cx="-367.129" cy="-130.24" rx="34.5" ry="34.5"/>
<text text-anchor="middle" x="-367.129" y="-126.54" font-family="Times New Roman,serif" font-size="14.00" fill="white">NIL10</text>
</g>
<!-- x00CEEB28&#45;&gt;NIL10 -->
<g id="edge28" class="edge"><title>x00CEEB28&#45;&gt;NIL10</title>
<path fill="none" stroke="black" d="M-404.966,-205.92C-399.466,-194.917 -393.11,-182.206 -387.198,-170.38"/>
<polygon fill="black" stroke="black" points="-383.917,-171.645 -382.575,-161.135 -390.178,-168.514 -383.917,-171.645"/>
</g>
<!-- NIL11 -->
<g id="node30" class="node"><title>NIL11</title>
<ellipse fill="BLACK" stroke="BLACK" cx="-262.235" cy="-130.24" rx="34.5" ry="34.5"/>
<text text-anchor="middle" x="-262.235" y="-126.54" font-family="Times New Roman,serif" font-size="14.00" fill="white">NIL11</text>
</g>
<!-- x00CEE9C0&#45;&gt;NIL11 -->
<g id="edge29" class="edge"><title>x00CEE9C0&#45;&gt;NIL11</title>
<path fill="none" stroke="black" d="M-224.397,-205.92C-229.898,-194.917 -236.253,-182.206 -242.166,-170.38"/>
<polygon fill="black" stroke="black" points="-239.186,-168.514 -246.788,-161.135 -245.447,-171.645 -239.186,-168.514"/>
</g>
<!-- NIL12 -->
<g id="node31" class="node"><title>NIL12</title>
<ellipse fill="BLACK" stroke="BLACK" cx="-157.341" cy="-130.24" rx="34.5" ry="34.5"/>
<text text-anchor="middle" x="-157.341" y="-126.54" font-family="Times New Roman,serif" font-size="14.00" fill="white">NIL12</text>
</g>
<!-- x00CEE9C0&#45;&gt;NIL12 -->
<g id="edge30" class="edge"><title>x00CEE9C0&#45;&gt;NIL12</title>
<path fill="none" stroke="black" d="M-195.178,-205.92C-189.678,-194.917 -183.323,-182.206 -177.41,-170.38"/>
<polygon fill="black" stroke="black" points="-174.129,-171.645 -172.788,-161.135 -180.39,-168.514 -174.129,-171.645"/>
</g>
<!-- NIL14 -->
<g id="node36" class="node"><title>NIL14</title>
<ellipse fill="BLACK" stroke="BLACK" cx="52.447" cy="-235.14" rx="34.5" ry="34.5"/>
<text text-anchor="middle" x="52.447" y="-231.44" font-family="Times New Roman,serif" font-size="14.00" fill="white">NIL14</text>
</g>
<!-- x00CEEED0&#45;&gt;NIL14 -->
<g id="edge35" class="edge"><title>x00CEEED0&#45;&gt;NIL14</title>
<path fill="none" stroke="black" d="M90.2845,-310.812C84.7838,-299.811 78.4286,-287.101 72.5159,-275.276"/>
<polygon fill="black" stroke="black" points="75.4964,-273.411 67.8936,-266.032 69.2354,-276.542 75.4964,-273.411"/>
</g>
<!-- NIL15 -->
<g id="node37" class="node"><title>NIL15</title>
<ellipse fill="BLACK" stroke="BLACK" cx="157.341" cy="-235.14" rx="34.5" ry="34.5"/>
<text text-anchor="middle" x="157.341" y="-231.44" font-family="Times New Roman,serif" font-size="14.00" fill="white">NIL15</text>
</g>
<!-- x00CEEED0&#45;&gt;NIL15 -->
<g id="edge36" class="edge"><title>x00CEEED0&#45;&gt;NIL15</title>
<path fill="none" stroke="black" d="M119.503,-310.812C125.004,-299.811 131.359,-287.101 137.272,-275.276"/>
<polygon fill="black" stroke="black" points="140.552,-276.542 141.894,-266.032 134.291,-273.411 140.552,-276.542"/>
</g>
<!-- NIL16 -->
<g id="node38" class="node"><title>NIL16</title>
<ellipse fill="BLACK" stroke="BLACK" cx="262.235" cy="-235.14" rx="34.5" ry="34.5"/>
<text text-anchor="middle" x="262.235" y="-231.44" font-family="Times New Roman,serif" font-size="14.00" fill="white">NIL16</text>
</g>
<!-- x00CEEBB8&#45;&gt;NIL16 -->
<g id="edge37" class="edge"><title>x00CEEBB8&#45;&gt;NIL16</title>
<path fill="none" stroke="black" d="M300.072,-310.812C294.572,-299.811 288.216,-287.101 282.304,-275.276"/>
<polygon fill="black" stroke="black" points="285.284,-273.411 277.681,-266.032 279.023,-276.542 285.284,-273.411"/>
</g>
<!-- NIL17 -->
<g id="node39" class="node"><title>NIL17</title>
<ellipse fill="BLACK" stroke="BLACK" cx="367.129" cy="-235.14" rx="34.5" ry="34.5"/>
<text text-anchor="middle" x="367.129" y="-231.44" font-family="Times New Roman,serif" font-size="14.00" fill="white">NIL17</text>
</g>
<!-- x00CEEBB8&#45;&gt;NIL17 -->
<g id="edge38" class="edge"><title>x00CEEBB8&#45;&gt;NIL17</title>
<path fill="none" stroke="black" d="M329.291,-310.812C334.792,-299.811 341.147,-287.101 347.06,-275.276"/>
<polygon fill="black" stroke="black" points="350.34,-276.542 351.682,-266.032 344.079,-273.411 350.34,-276.542"/>
</g>
<!-- NIL18 -->
<g id="node40" class="node"><title>NIL18</title>
<ellipse fill="BLACK" stroke="BLACK" cx="472.023" cy="-235.14" rx="34.5" ry="34.5"/>
<text text-anchor="middle" x="472.023" y="-231.44" font-family="Times New Roman,serif" font-size="14.00" fill="white">NIL18</text>
</g>
<!-- x00CEEE88&#45;&gt;NIL18 -->
<g id="edge39" class="edge"><title>x00CEEE88&#45;&gt;NIL18</title>
<path fill="none" stroke="black" d="M509.86,-310.812C504.359,-299.811 498.004,-287.101 492.092,-275.276"/>
<polygon fill="black" stroke="black" points="495.072,-273.411 487.469,-266.032 488.811,-276.542 495.072,-273.411"/>
</g>
<!-- NIL19 -->
<g id="node41" class="node"><title>NIL19</title>
<ellipse fill="BLACK" stroke="BLACK" cx="576.917" cy="-235.14" rx="34.5" ry="34.5"/>
<text text-anchor="middle" x="576.917" y="-231.44" font-family="Times New Roman,serif" font-size="14.00" fill="white">NIL19</text>
</g>
<!-- x00CEEE88&#45;&gt;NIL19 -->
<g id="edge40" class="edge"><title>x00CEEE88&#45;&gt;NIL19</title>
<path fill="none" stroke="black" d="M539.079,-310.812C544.58,-299.811 550.935,-287.101 556.848,-275.276"/>
<polygon fill="black" stroke="black" points="560.128,-276.542 561.47,-266.032 553.867,-273.411 560.128,-276.542"/>
</g>
</g>
</svg>
