<?xml version="1.0" encoding="UTF-8" standalone="no"?>
<!DOCTYPE svg PUBLIC "-//W3C//DTD SVG 1.1//EN"
 "http://www.w3.org/Graphics/SVG/1.1/DTD/svg11.dtd">
<!-- Generated by graphviz version 2.38.0 (20140413.2041)
 -->
<!-- Title: RBTree Pages: 1 -->
<svg width="1874pt" height="590pt"
 viewBox="0.00 0.00 1874.15 589.72" xmlns="http://www.w3.org/2000/svg" xmlns:xlink="http://www.w3.org/1999/xlink">
<g id="graph0" class="graph" transform="scale(1 1) rotate(0) translate(1153.84 585.67)">
<title>RBTree</title>
<polygon fill="white" stroke="none" points="-1153.84,4.053 -1153.84,-585.67 720.31,-585.67 720.31,4.053 -1153.84,4.053"/>
<!-- x00CEEFF0 -->
<g id="node1" class="node"><title>x00CEEFF0</title>
<ellipse fill="BLACK" stroke="BLACK" cx="0" cy="-549.17" rx="32.5" ry="32.5"/>
<text text-anchor="middle" x="0" y="-545.47" font-family="Times New Roman,serif" font-size="14.00" fill="white">19169</text>
</g>
<!-- x00CEEF60 -->
<g id="node2" class="node"><title>x00CEEF60</title>
<ellipse fill="RED" stroke="RED" cx="-592.966" cy="-448.17" rx="28.5" ry="28.5"/>
<text text-anchor="middle" x="-592.966" y="-444.47" font-family="Times New Roman,serif" font-size="14.00" fill="white">6334</text>
</g>
<!-- x00CEEFF0&#45;&gt;x00CEEF60 -->
<g id="edge1" class="edge"><title>x00CEEFF0&#45;&gt;x00CEEF60</title>
<path fill="none" stroke="black" d="M-32.3015,-543.668C-133.795,-526.381 -445.988,-473.205 -554.96,-454.644"/>
<polygon fill="black" stroke="black" points="-554.411,-451.187 -564.857,-452.958 -555.587,-458.087 -554.411,-451.187"/>
</g>
<!-- x00CEEDF8 -->
<g id="node3" class="node"><title>x00CEEDF8</title>
<ellipse fill="BLACK" stroke="BLACK" cx="419.576" cy="-448.17" rx="32.5" ry="32.5"/>
<text text-anchor="middle" x="419.576" y="-444.47" font-family="Times New Roman,serif" font-size="14.00" fill="white">26962</text>
</g>
<!-- x00CEEFF0&#45;&gt;x00CEEDF8 -->
<g id="edge2" class="edge"><title>x00CEEFF0&#45;&gt;x00CEEDF8</title>
<path fill="none" stroke="black" d="M31.8807,-541.496C106.782,-523.465 293.959,-478.408 377.807,-458.225"/>
<polygon fill="black" stroke="black" points="378.84,-461.576 387.743,-455.833 377.202,-454.77 378.84,-461.576"/>
</g>
<!-- x00CEF110 -->
<g id="node4" class="node"><title>x00CEF110</title>
<ellipse fill="BLACK" stroke="BLACK" cx="-976.144" cy="-347.18" rx="24" ry="24"/>
<text text-anchor="middle" x="-976.144" y="-343.48" font-family="Times New Roman,serif" font-size="14.00" fill="white">491</text>
</g>
<!-- x00CEEF60&#45;&gt;x00CEF110 -->
<g id="edge3" class="edge"><title>x00CEEF60&#45;&gt;x00CEF110</title>
<path fill="none" stroke="black" d="M-620.832,-440.826C-689.914,-422.618 -868.845,-375.46 -943.097,-355.89"/>
<polygon fill="black" stroke="black" points="-942.295,-352.482 -952.857,-353.318 -944.079,-359.251 -942.295,-352.482"/>
</g>
<!-- x00CEECD8 -->
<g id="node5" class="node"><title>x00CEECD8</title>
<ellipse fill="BLACK" stroke="BLACK" cx="-305.582" cy="-347.18" rx="32.5" ry="32.5"/>
<text text-anchor="middle" x="-305.582" y="-343.48" font-family="Times New Roman,serif" font-size="14.00" fill="white">15724</text>
</g>
<!-- x00CEEF60&#45;&gt;x00CEECD8 -->
<g id="edge4" class="edge"><title>x00CEEF60&#45;&gt;x00CEECD8</title>
<path fill="none" stroke="black" d="M-565.93,-438.669C-515.236,-420.855 -405.662,-382.349 -346.106,-361.421"/>
<polygon fill="black" stroke="black" points="-344.918,-364.713 -336.644,-358.095 -347.239,-358.109 -344.918,-364.713"/>
</g>
<!-- x00CEF038 -->
<g id="node6" class="node"><title>x00CEF038</title>
<ellipse fill="BLACK" stroke="BLACK" cx="209.788" cy="-347.18" rx="32.5" ry="32.5"/>
<text text-anchor="middle" x="209.788" y="-343.48" font-family="Times New Roman,serif" font-size="14.00" fill="white">24464</text>
</g>
<!-- x00CEEDF8&#45;&gt;x00CEF038 -->
<g id="edge5" class="edge"><title>x00CEEDF8&#45;&gt;x00CEF038</title>
<path fill="none" stroke="black" d="M389.963,-433.915C352.87,-416.058 289.23,-385.423 248.362,-365.749"/>
<polygon fill="black" stroke="black" points="249.778,-362.547 239.25,-361.363 246.742,-368.854 249.778,-362.547"/>
</g>
<!-- x00CEED20 -->
<g id="node7" class="node"><title>x00CEED20</title>
<ellipse fill="BLACK" stroke="BLACK" cx="629.364" cy="-347.18" rx="32.5" ry="32.5"/>
<text text-anchor="middle" x="629.364" y="-343.48" font-family="Times New Roman,serif" font-size="14.00" fill="white">29358</text>
</g>
<!-- x00CEEDF8&#45;&gt;x00CEED20 -->
<g id="edge6" class="edge"><title>x00CEEDF8&#45;&gt;x00CEED20</title>
<path fill="none" stroke="black" d="M449.188,-433.915C486.282,-416.058 549.921,-385.423 590.789,-365.749"/>
<polygon fill="black" stroke="black" points="592.409,-368.854 599.902,-361.363 589.373,-362.547 592.409,-368.854"/>
</g>
<!-- x00CEF080 -->
<g id="node8" class="node"><title>x00CEF080</title>
<ellipse fill="BLACK" stroke="BLACK" cx="-1071.94" cy="-244.23" rx="19.5" ry="19.5"/>
<text text-anchor="middle" x="-1071.94" y="-240.53" font-family="Times New Roman,serif" font-size="14.00" fill="white">41</text>
</g>
<!-- x00CEF110&#45;&gt;x00CEF080 -->
<g id="edge7" class="edge"><title>x00CEF110&#45;&gt;x00CEF080</title>
<path fill="none" stroke="black" d="M-992.83,-329.247C-1009.15,-311.706 -1034.04,-284.958 -1051.53,-266.16"/>
<polygon fill="black" stroke="black" points="-1049.16,-263.576 -1058.53,-258.64 -1054.28,-268.345 -1049.16,-263.576"/>
</g>
<!-- x00CEE978 -->
<g id="node9" class="node"><title>x00CEE978</title>
<ellipse fill="RED" stroke="RED" cx="-784.555" cy="-244.23" rx="28.5" ry="28.5"/>
<text text-anchor="middle" x="-784.555" y="-240.53" font-family="Times New Roman,serif" font-size="14.00" fill="white">4827</text>
</g>
<!-- x00CEF110&#45;&gt;x00CEE978 -->
<g id="edge8" class="edge"><title>x00CEF110&#45;&gt;x00CEE978</title>
<path fill="none" stroke="black" d="M-954.909,-335.769C-921.987,-318.079 -858.319,-283.867 -818.829,-262.647"/>
<polygon fill="black" stroke="black" points="-816.977,-265.625 -809.825,-257.809 -820.291,-259.459 -816.977,-265.625"/>
</g>
<!-- x00CEEDB0 -->
<g id="node10" class="node"><title>x00CEEDB0</title>
<ellipse fill="BLACK" stroke="BLACK" cx="-401.377" cy="-244.23" rx="32.5" ry="32.5"/>
<text text-anchor="middle" x="-401.377" y="-240.53" font-family="Times New Roman,serif" font-size="14.00" fill="white">11478</text>
</g>
<!-- x00CEECD8&#45;&gt;x00CEEDB0 -->
<g id="edge9" class="edge"><title>x00CEECD8&#45;&gt;x00CEEDB0</title>
<path fill="none" stroke="black" d="M-327.8,-323.302C-340.885,-309.241 -357.599,-291.278 -371.79,-276.027"/>
<polygon fill="black" stroke="black" points="-369.573,-273.271 -378.948,-268.335 -374.698,-278.04 -369.573,-273.271"/>
</g>
<!-- x00CEEFA8 -->
<g id="node11" class="node"><title>x00CEEFA8</title>
<ellipse fill="BLACK" stroke="BLACK" cx="-104.894" cy="-244.23" rx="32.5" ry="32.5"/>
<text text-anchor="middle" x="-104.894" y="-240.53" font-family="Times New Roman,serif" font-size="14.00" fill="white">18467</text>
</g>
<!-- x00CEECD8&#45;&gt;x00CEEFA8 -->
<g id="edge10" class="edge"><title>x00CEECD8&#45;&gt;x00CEEFA8</title>
<path fill="none" stroke="black" d="M-276.401,-332.21C-241.175,-314.14 -181.845,-283.705 -143.028,-263.792"/>
<polygon fill="black" stroke="black" points="-141.411,-266.896 -134.111,-259.218 -144.606,-260.668 -141.411,-266.896"/>
</g>
<!-- x00CEEED0 -->
<g id="node28" class="node"><title>x00CEEED0</title>
<ellipse fill="RED" stroke="RED" cx="104.894" cy="-244.23" rx="32.5" ry="32.5"/>
<text text-anchor="middle" x="104.894" y="-240.53" font-family="Times New Roman,serif" font-size="14.00" fill="white">23281</text>
</g>
<!-- x00CEF038&#45;&gt;x00CEEED0 -->
<g id="edge27" class="edge"><title>x00CEF038&#45;&gt;x00CEEED0</title>
<path fill="none" stroke="black" d="M186.508,-324.332C171.434,-309.537 151.647,-290.117 135.331,-274.103"/>
<polygon fill="black" stroke="black" points="137.697,-271.521 128.108,-267.014 132.793,-276.517 137.697,-271.521"/>
</g>
<!-- x00CEEBB8 -->
<g id="node29" class="node"><title>x00CEEBB8</title>
<ellipse fill="RED" stroke="RED" cx="314.682" cy="-244.23" rx="32.5" ry="32.5"/>
<text text-anchor="middle" x="314.682" y="-240.53" font-family="Times New Roman,serif" font-size="14.00" fill="white">26500</text>
</g>
<!-- x00CEF038&#45;&gt;x00CEEBB8 -->
<g id="edge28" class="edge"><title>x00CEF038&#45;&gt;x00CEEBB8</title>
<path fill="none" stroke="black" d="M233.067,-324.332C248.141,-309.537 267.929,-290.117 284.245,-274.103"/>
<polygon fill="black" stroke="black" points="286.782,-276.517 291.467,-267.014 281.879,-271.521 286.782,-276.517"/>
</g>
<!-- x00CEEE88 -->
<g id="node30" class="node"><title>x00CEEE88</title>
<ellipse fill="RED" stroke="RED" cx="524.47" cy="-244.23" rx="32.5" ry="32.5"/>
<text text-anchor="middle" x="524.47" y="-240.53" font-family="Times New Roman,serif" font-size="14.00" fill="white">28145</text>
</g>
<!-- x00CEED20&#45;&gt;x00CEEE88 -->
<g id="edge29" class="edge"><title>x00CEED20&#45;&gt;x00CEEE88</title>
<path fill="none" stroke="black" d="M606.084,-324.332C591.01,-309.537 571.223,-290.117 554.907,-274.103"/>
<polygon fill="black" stroke="black" points="557.272,-271.521 547.684,-267.014 552.369,-276.517 557.272,-271.521"/>
</g>
<!-- NIL18 -->
<g id="node31" class="node"><title>NIL18</title>
<ellipse fill="BLACK" stroke="BLACK" cx="681.81" cy="-244.23" rx="34.5" ry="34.5"/>
<text text-anchor="middle" x="681.81" y="-240.53" font-family="Times New Roman,serif" font-size="14.00" fill="white">NIL18</text>
</g>
<!-- x00CEED20&#45;&gt;NIL18 -->
<g id="edge30" class="edge"><title>x00CEED20&#45;&gt;NIL18</title>
<path fill="none" stroke="black" d="M644.252,-317.954C649.552,-307.551 655.617,-295.647 661.304,-284.482"/>
<polygon fill="black" stroke="black" points="664.547,-285.827 665.968,-275.328 658.31,-282.649 664.547,-285.827"/>
</g>
<!-- NIL0 -->
<g id="node12" class="node"><title>NIL0</title>
<ellipse fill="BLACK" stroke="BLACK" cx="-1119.84" cy="-139.34" rx="30" ry="30"/>
<text text-anchor="middle" x="-1119.84" y="-135.64" font-family="Times New Roman,serif" font-size="14.00" fill="white">NIL0</text>
</g>
<!-- x00CEF080&#45;&gt;NIL0 -->
<g id="edge11" class="edge"><title>x00CEF080&#45;&gt;NIL0</title>
<path fill="none" stroke="black" d="M-1080.06,-226.437C-1086.37,-212.628 -1095.32,-193.019 -1103.14,-175.902"/>
<polygon fill="black" stroke="black" points="-1100,-174.344 -1107.34,-166.702 -1106.37,-177.252 -1100,-174.344"/>
</g>
<!-- NIL1 -->
<g id="node13" class="node"><title>NIL1</title>
<ellipse fill="BLACK" stroke="BLACK" cx="-1024.04" cy="-139.34" rx="30" ry="30"/>
<text text-anchor="middle" x="-1024.04" y="-135.64" font-family="Times New Roman,serif" font-size="14.00" fill="white">NIL1</text>
</g>
<!-- x00CEF080&#45;&gt;NIL1 -->
<g id="edge12" class="edge"><title>x00CEF080&#45;&gt;NIL1</title>
<path fill="none" stroke="black" d="M-1063.81,-226.437C-1057.51,-212.628 -1048.55,-193.019 -1040.74,-175.902"/>
<polygon fill="black" stroke="black" points="-1037.51,-177.252 -1036.54,-166.702 -1043.87,-174.344 -1037.51,-177.252"/>
</g>
<!-- x00CEEC00 -->
<g id="node14" class="node"><title>x00CEEC00</title>
<ellipse fill="BLACK" stroke="BLACK" cx="-880.35" cy="-139.34" rx="28.5" ry="28.5"/>
<text text-anchor="middle" x="-880.35" y="-135.64" font-family="Times New Roman,serif" font-size="14.00" fill="white">2995</text>
</g>
<!-- x00CEE978&#45;&gt;x00CEEC00 -->
<g id="edge13" class="edge"><title>x00CEE978&#45;&gt;x00CEEC00</title>
<path fill="none" stroke="black" d="M-803.941,-223.004C-818.353,-207.223 -838.181,-185.512 -854.027,-168.162"/>
<polygon fill="black" stroke="black" points="-851.665,-165.558 -860.993,-160.534 -856.834,-170.279 -851.665,-165.558"/>
</g>
<!-- x00CEEE40 -->
<g id="node15" class="node"><title>x00CEEE40</title>
<ellipse fill="BLACK" stroke="BLACK" cx="-688.761" cy="-139.34" rx="28.5" ry="28.5"/>
<text text-anchor="middle" x="-688.761" y="-135.64" font-family="Times New Roman,serif" font-size="14.00" fill="white">5705</text>
</g>
<!-- x00CEE978&#45;&gt;x00CEEE40 -->
<g id="edge14" class="edge"><title>x00CEE978&#45;&gt;x00CEEE40</title>
<path fill="none" stroke="black" d="M-765.17,-223.004C-750.757,-207.223 -730.929,-185.512 -715.084,-168.162"/>
<polygon fill="black" stroke="black" points="-712.277,-170.279 -708.117,-160.534 -717.445,-165.558 -712.277,-170.279"/>
</g>
<!-- x00CEF0C8 -->
<g id="node20" class="node"><title>x00CEF0C8</title>
<ellipse fill="RED" stroke="RED" cx="-497.172" cy="-139.34" rx="28.5" ry="28.5"/>
<text text-anchor="middle" x="-497.172" y="-135.64" font-family="Times New Roman,serif" font-size="14.00" fill="white">9961</text>
</g>
<!-- x00CEEDB0&#45;&gt;x00CEF0C8 -->
<g id="edge19" class="edge"><title>x00CEEDB0&#45;&gt;x00CEF0C8</title>
<path fill="none" stroke="black" d="M-423.354,-220.166C-437.5,-204.677 -455.963,-184.461 -470.885,-168.122"/>
<polygon fill="black" stroke="black" points="-468.563,-165.474 -477.891,-160.451 -473.732,-170.195 -468.563,-165.474"/>
</g>
<!-- NIL8 -->
<g id="node21" class="node"><title>NIL8</title>
<ellipse fill="BLACK" stroke="BLACK" cx="-353.48" cy="-139.34" rx="30" ry="30"/>
<text text-anchor="middle" x="-353.48" y="-135.64" font-family="Times New Roman,serif" font-size="14.00" fill="white">NIL8</text>
</g>
<!-- x00CEEDB0&#45;&gt;NIL8 -->
<g id="edge20" class="edge"><title>x00CEEDB0&#45;&gt;NIL8</title>
<path fill="none" stroke="black" d="M-387.78,-214.453C-382.314,-202.484 -375.957,-188.564 -370.212,-175.982"/>
<polygon fill="black" stroke="black" points="-366.933,-177.226 -365.963,-166.676 -373.3,-174.319 -366.933,-177.226"/>
</g>
<!-- x00CEE9C0 -->
<g id="node22" class="node"><title>x00CEE9C0</title>
<ellipse fill="RED" stroke="RED" cx="-209.788" cy="-139.34" rx="32.5" ry="32.5"/>
<text text-anchor="middle" x="-209.788" y="-135.64" font-family="Times New Roman,serif" font-size="14.00" fill="white">16827</text>
</g>
<!-- x00CEEFA8&#45;&gt;x00CEE9C0 -->
<g id="edge21" class="edge"><title>x00CEEFA8&#45;&gt;x00CEE9C0</title>
<path fill="none" stroke="black" d="M-127.913,-221.211C-142.975,-206.15 -162.824,-186.302 -179.206,-169.92"/>
<polygon fill="black" stroke="black" points="-176.914,-167.263 -186.46,-162.667 -181.863,-172.213 -176.914,-167.263"/>
</g>
<!-- NIL11 -->
<g id="node23" class="node"><title>NIL11</title>
<ellipse fill="BLACK" stroke="BLACK" cx="-52.447" cy="-139.34" rx="34.5" ry="34.5"/>
<text text-anchor="middle" x="-52.447" y="-135.64" font-family="Times New Roman,serif" font-size="14.00" fill="white">NIL11</text>
</g>
<!-- x00CEEFA8&#45;&gt;NIL11 -->
<g id="edge22" class="edge"><title>x00CEEFA8&#45;&gt;NIL11</title>
<path fill="none" stroke="black" d="M-90.2845,-215.012C-84.7838,-204.011 -78.4286,-191.301 -72.5159,-179.476"/>
<polygon fill="black" stroke="black" points="-69.2354,-180.742 -67.8936,-170.232 -75.4964,-177.611 -69.2354,-180.742"/>
</g>
<!-- NIL2 -->
<g id="node16" class="node"><title>NIL2</title>
<ellipse fill="BLACK" stroke="BLACK" cx="-928.247" cy="-34.447" rx="30" ry="30"/>
<text text-anchor="middle" x="-928.247" y="-30.747" font-family="Times New Roman,serif" font-size="14.00" fill="white">NIL2</text>
</g>
<!-- x00CEEC00&#45;&gt;NIL2 -->
<g id="edge15" class="edge"><title>x00CEEC00&#45;&gt;NIL2</title>
<path fill="none" stroke="black" d="M-892.19,-113.411C-897.997,-100.694 -905.093,-85.1535 -911.449,-71.2335"/>
<polygon fill="black" stroke="black" points="-908.369,-69.5527 -915.707,-61.91 -914.737,-72.4604 -908.369,-69.5527"/>
</g>
<!-- NIL3 -->
<g id="node17" class="node"><title>NIL3</title>
<ellipse fill="BLACK" stroke="BLACK" cx="-832.452" cy="-34.447" rx="30" ry="30"/>
<text text-anchor="middle" x="-832.452" y="-30.747" font-family="Times New Roman,serif" font-size="14.00" fill="white">NIL3</text>
</g>
<!-- x00CEEC00&#45;&gt;NIL3 -->
<g id="edge16" class="edge"><title>x00CEEC00&#45;&gt;NIL3</title>
<path fill="none" stroke="black" d="M-868.51,-113.411C-862.703,-100.694 -855.607,-85.1535 -849.25,-71.2335"/>
<polygon fill="black" stroke="black" points="-845.963,-72.4604 -844.993,-61.91 -852.331,-69.5527 -845.963,-72.4604"/>
</g>
<!-- NIL4 -->
<g id="node18" class="node"><title>NIL4</title>
<ellipse fill="BLACK" stroke="BLACK" cx="-736.658" cy="-34.447" rx="30" ry="30"/>
<text text-anchor="middle" x="-736.658" y="-30.747" font-family="Times New Roman,serif" font-size="14.00" fill="white">NIL4</text>
</g>
<!-- x00CEEE40&#45;&gt;NIL4 -->
<g id="edge17" class="edge"><title>x00CEEE40&#45;&gt;NIL4</title>
<path fill="none" stroke="black" d="M-700.6,-113.411C-706.408,-100.694 -713.504,-85.1535 -719.86,-71.2335"/>
<polygon fill="black" stroke="black" points="-716.78,-69.5527 -724.117,-61.91 -723.147,-72.4604 -716.78,-69.5527"/>
</g>
<!-- NIL5 -->
<g id="node19" class="node"><title>NIL5</title>
<ellipse fill="BLACK" stroke="BLACK" cx="-640.863" cy="-34.447" rx="30" ry="30"/>
<text text-anchor="middle" x="-640.863" y="-30.747" font-family="Times New Roman,serif" font-size="14.00" fill="white">NIL5</text>
</g>
<!-- x00CEEE40&#45;&gt;NIL5 -->
<g id="edge18" class="edge"><title>x00CEEE40&#45;&gt;NIL5</title>
<path fill="none" stroke="black" d="M-676.921,-113.411C-671.114,-100.694 -664.017,-85.1535 -657.661,-71.2335"/>
<polygon fill="black" stroke="black" points="-654.374,-72.4604 -653.404,-61.91 -660.741,-69.5527 -654.374,-72.4604"/>
</g>
<!-- NIL6 -->
<g id="node24" class="node"><title>NIL6</title>
<ellipse fill="BLACK" stroke="BLACK" cx="-545.069" cy="-34.447" rx="30" ry="30"/>
<text text-anchor="middle" x="-545.069" y="-30.747" font-family="Times New Roman,serif" font-size="14.00" fill="white">NIL6</text>
</g>
<!-- x00CEF0C8&#45;&gt;NIL6 -->
<g id="edge23" class="edge"><title>x00CEF0C8&#45;&gt;NIL6</title>
<path fill="none" stroke="black" d="M-509.011,-113.411C-514.818,-100.694 -521.915,-85.1535 -528.271,-71.2335"/>
<polygon fill="black" stroke="black" points="-525.191,-69.5527 -532.528,-61.91 -531.558,-72.4604 -525.191,-69.5527"/>
</g>
<!-- NIL7 -->
<g id="node25" class="node"><title>NIL7</title>
<ellipse fill="BLACK" stroke="BLACK" cx="-449.274" cy="-34.447" rx="30" ry="30"/>
<text text-anchor="middle" x="-449.274" y="-30.747" font-family="Times New Roman,serif" font-size="14.00" fill="white">NIL7</text>
</g>
<!-- x00CEF0C8&#45;&gt;NIL7 -->
<g id="edge24" class="edge"><title>x00CEF0C8&#45;&gt;NIL7</title>
<path fill="none" stroke="black" d="M-485.332,-113.411C-479.525,-100.694 -472.428,-85.1535 -466.072,-71.2335"/>
<polygon fill="black" stroke="black" points="-462.785,-72.4604 -461.815,-61.91 -469.152,-69.5527 -462.785,-72.4604"/>
</g>
<!-- NIL9 -->
<g id="node26" class="node"><title>NIL9</title>
<ellipse fill="BLACK" stroke="BLACK" cx="-257.685" cy="-34.447" rx="30" ry="30"/>
<text text-anchor="middle" x="-257.685" y="-30.747" font-family="Times New Roman,serif" font-size="14.00" fill="white">NIL9</text>
</g>
<!-- x00CEE9C0&#45;&gt;NIL9 -->
<g id="edge25" class="edge"><title>x00CEE9C0&#45;&gt;NIL9</title>
<path fill="none" stroke="black" d="M-223.385,-109.562C-228.851,-97.5926 -235.207,-83.6721 -240.953,-71.09"/>
<polygon fill="black" stroke="black" points="-237.865,-69.4265 -245.202,-61.7839 -244.232,-72.3342 -237.865,-69.4265"/>
</g>
<!-- NIL10 -->
<g id="node27" class="node"><title>NIL10</title>
<ellipse fill="BLACK" stroke="BLACK" cx="-157.341" cy="-34.447" rx="34.5" ry="34.5"/>
<text text-anchor="middle" x="-157.341" y="-30.747" font-family="Times New Roman,serif" font-size="14.00" fill="white">NIL10</text>
</g>
<!-- x00CEE9C0&#45;&gt;NIL10 -->
<g id="edge26" class="edge"><title>x00CEE9C0&#45;&gt;NIL10</title>
<path fill="none" stroke="black" d="M-195.178,-110.121C-189.678,-99.12 -183.323,-86.4098 -177.41,-74.5844"/>
<polygon fill="black" stroke="black" points="-174.129,-75.8495 -172.788,-65.34 -180.39,-72.719 -174.129,-75.8495"/>
</g>
<!-- NIL12 -->
<g id="node32" class="node"><title>NIL12</title>
<ellipse fill="BLACK" stroke="BLACK" cx="52.447" cy="-139.34" rx="34.5" ry="34.5"/>
<text text-anchor="middle" x="52.447" y="-135.64" font-family="Times New Roman,serif" font-size="14.00" fill="white">NIL12</text>
</g>
<!-- x00CEEED0&#45;&gt;NIL12 -->
<g id="edge31" class="edge"><title>x00CEEED0&#45;&gt;NIL12</title>
<path fill="none" stroke="black" d="M90.2845,-215.012C84.7838,-204.011 78.4286,-191.301 72.5159,-179.476"/>
<polygon fill="black" stroke="black" points="75.4964,-177.611 67.8936,-170.232 69.2354,-180.742 75.4964,-177.611"/>
</g>
<!-- NIL13 -->
<g id="node33" class="node"><title>NIL13</title>
<ellipse fill="BLACK" stroke="BLACK" cx="157.341" cy="-139.34" rx="34.5" ry="34.5"/>
<text text-anchor="middle" x="157.341" y="-135.64" font-family="Times New Roman,serif" font-size="14.00" fill="white">NIL13</text>
</g>
<!-- x00CEEED0&#45;&gt;NIL13 -->
<g id="edge32" class="edge"><title>x00CEEED0&#45;&gt;NIL13</title>
<path fill="none" stroke="black" d="M119.503,-215.012C125.004,-204.011 131.359,-191.301 137.272,-179.476"/>
<polygon fill="black" stroke="black" points="140.552,-180.742 141.894,-170.232 134.291,-177.611 140.552,-180.742"/>
</g>
<!-- NIL14 -->
<g id="node34" class="node"><title>NIL14</title>
<ellipse fill="BLACK" stroke="BLACK" cx="262.235" cy="-139.34" rx="34.5" ry="34.5"/>
<text text-anchor="middle" x="262.235" y="-135.64" font-family="Times New Roman,serif" font-size="14.00" fill="white">NIL14</text>
</g>
<!-- x00CEEBB8&#45;&gt;NIL14 -->
<g id="edge33" class="edge"><title>x00CEEBB8&#45;&gt;NIL14</title>
<path fill="none" stroke="black" d="M300.072,-215.012C294.572,-204.011 288.216,-191.301 282.304,-179.476"/>
<polygon fill="black" stroke="black" points="285.284,-177.611 277.681,-170.232 279.023,-180.742 285.284,-177.611"/>
</g>
<!-- NIL15 -->
<g id="node35" class="node"><title>NIL15</title>
<ellipse fill="BLACK" stroke="BLACK" cx="367.129" cy="-139.34" rx="34.5" ry="34.5"/>
<text text-anchor="middle" x="367.129" y="-135.64" font-family="Times New Roman,serif" font-size="14.00" fill="white">NIL15</text>
</g>
<!-- x00CEEBB8&#45;&gt;NIL15 -->
<g id="edge34" class="edge"><title>x00CEEBB8&#45;&gt;NIL15</title>
<path fill="none" stroke="black" d="M329.291,-215.012C334.792,-204.011 341.147,-191.301 347.06,-179.476"/>
<polygon fill="black" stroke="black" points="350.34,-180.742 351.682,-170.232 344.079,-177.611 350.34,-180.742"/>
</g>
<!-- NIL16 -->
<g id="node36" class="node"><title>NIL16</title>
<ellipse fill="BLACK" stroke="BLACK" cx="472.023" cy="-139.34" rx="34.5" ry="34.5"/>
<text text-anchor="middle" x="472.023" y="-135.64" font-family="Times New Roman,serif" font-size="14.00" fill="white">NIL16</text>
</g>
<!-- x00CEEE88&#45;&gt;NIL16 -->
<g id="edge35" class="edge"><title>x00CEEE88&#45;&gt;NIL16</title>
<path fill="none" stroke="black" d="M509.86,-215.012C504.359,-204.011 498.004,-191.301 492.092,-179.476"/>
<polygon fill="black" stroke="black" points="495.072,-177.611 487.469,-170.232 488.811,-180.742 495.072,-177.611"/>
</g>
<!-- NIL17 -->
<g id="node37" class="node"><title>NIL17</title>
<ellipse fill="BLACK" stroke="BLACK" cx="576.917" cy="-139.34" rx="34.5" ry="34.5"/>
<text text-anchor="middle" x="576.917" y="-135.64" font-family="Times New Roman,serif" font-size="14.00" fill="white">NIL17</text>
</g>
<!-- x00CEEE88&#45;&gt;NIL17 -->
<g id="edge36" class="edge"><title>x00CEEE88&#45;&gt;NIL17</title>
<path fill="none" stroke="black" d="M539.079,-215.012C544.58,-204.011 550.935,-191.301 556.848,-179.476"/>
<polygon fill="black" stroke="black" points="560.128,-180.742 561.47,-170.232 553.867,-177.611 560.128,-180.742"/>
</g>
</g>
</svg>
